<svg xmlns="http://www.w3.org/2000/svg" width="191.921" height="48.336" viewBox="0 0 191.921 48.336"><path fill="#FF411B" d="M69.597 33.965c-7.138 0-12.945-5.807-12.945-12.94 0-7.14 5.808-12.944 12.945-12.944 7.14 0 12.9 5.8 12.9 12.944C82.542 28.2 76.7 34 69.6 33.964h-.003zm0-21.058c-4.476 0-8.118 3.64-8.118 8.1 0 4.5 3.6 8.1 8.1 8.115 4.477 0 8.117-3.644 8.117-8.115.018-4.507-3.597-8.106-8.097-8.1h-.003zM97.832 8.08c-7.137 0-12.943 5.807-12.943 12.943v24.9c0 1.3 1.1 2.398 2.4 2.413 1.33 0 2.412-1.082 2.412-2.414v-14.83c2.223 1.8 5 2.9 8.1 2.9 7.14 0 12.944-5.81 12.944-12.943C110.776 13.9 105 8.1 97.8 8.08h.032zm0 21.057c-4.475 0-8.117-3.643-8.117-8.113 0-4.477 3.643-8.116 8.117-8.116 4.48 0 8.1 3.6 8.1 8.116.022 4.477-3.63 8.076-8.13 8.113h.03zM124.474 13.094c1.332 0 2.412-1.08 2.412-2.414 0-1.332-1.08-2.412-2.412-2.412h-5.588V2.523c0-1.334-1.082-2.414-2.414-2.414s-2.414 1.08-2.414 2.413v20.164c0 4.8 2.9 9.1 7.3 11 .304.1 2.302.9 3.323-.883.812-1.39-.24-3.063-1.47-3.574-2.646-1.103-4.354-3.662-4.354-6.524v-9.592h5.617v-.02zM133.18 33.93c-1.33 0-2.413-1.08-2.413-2.412v-20.91c0-1.332 1.082-2.414 2.414-2.414 1.335 0 2.4 1.1 2.4 2.414v20.91c.015 1.383-1.08 2.383-2.38 2.412h-.02zM152.304 33.87c-.885 0-1.7-.482-2.12-1.26l-11.286-20.76c-.637-1.173-.2-2.638.97-3.274 1.173-.636 2.638-.203 3.302.968l9.164 16.856 9.162-16.856c.635-1.17 2.103-1.604 3.27-.968 1.173.6 1.603 2.1 1 3.273l-11.282 20.76c-.482.79-1.283 1.29-2.184 1.26h.004zM191.92 21.023c0-3.457-1.345-6.707-3.79-9.153-2.445-2.444-5.695-3.79-9.154-3.79-3.457 0-6.71 1.346-9.152 3.79-2.445 2.446-3.79 5.694-3.79 9.15 0 3.5 1.298 6.702 3.798 9.202 2.443 2.4 5.7 3.8 9.2 3.79 3.46 0 6.71-1.346 9.153-3.79.943-.942.943-2.472 0-3.414-.94-.942-2.47-.942-3.414 0-1.53 1.532-3.57 2.377-5.737 2.377-2.17 0-4.207-.845-5.74-2.377-1.533-1.533-2.377-3.57-2.377-5.736 0-2.168.844-4.207 2.377-5.74 1.533-1.532 3.57-2.376 5.74-2.376 2.168 0 4.207.8 5.7 2.4 1.054 1.1 1.8 2.3 2.1 3.753h-7.148c-1.334 0-2.414 1.08-2.414 2.413 0 1.3 1.104 2.4 2.4 2.412h9.78c1.335 0 2.413-1.08 2.413-2.412 0-.014-.004-.026-.004-.04.042-.184.04-.283.04-.46h.02zM25.89 20.993c0-7.138-5.806-12.943-12.944-12.943C5.808 8.05 0 13.9 0 20.993c0 7.1 5.8 12.9 12.9 12.9 3.058 0 5.87-1.068 8.086-2.848v.566c0 1.302 1.1 2.4 2.4 2.413 1.333 0 2.414-1.08 2.414-2.412.06.09.1-10.312.1-10.62l-.01.003zm-12.945 8.114c-4.477 0-8.12-3.644-8.12-8.114 0-4.478 3.644-8.117 8.12-8.117 4.473 0 8.1 3.6 8.1 8.104-.014.104-.032.645-.032.645C20.707 25.8 17.2 29.1 12.9 29.107h.045zM54.245 2.414C54.245 1.1 53.2 0 51.8 0c-1.333 0-2.414 1.08-2.414 2.414v8.61c-2.23-1.815-5.068-2.905-8.16-2.905-7.14 0-12.945 5.805-12.945 12.942 0 7.1 5.8 12.9 12.9 12.9 7.1 0 12.946-5.81 12.946-12.94C54.203 21 54.2 2.4 54.2 2.413h.045zm-12.987 26.76c-4.477 0-8.117-3.64-8.117-8.113 0-4.476 3.642-8.116 8.118-8.116 4.476 0 8.12 3.6 8.1 8.117.02 4.44-3.658 8.14-8.058 8.114h-.042z"/></svg>