<svg xmlns="http://www.w3.org/2000/svg" width="213.191" height="40.393" viewBox="0 0 213.191 40.393"><path fill="#F58220" d="M83.232 31.536c-.938.72-1.944 1.367-2.952 1.943v-3.024c.576-.216 1.224-.504 1.8-.72 1.296-.576 2.448.864 1.152 1.8zm6.84-5.04c0-.576-.146-1.01-.288-1.226-.646-.79-5.4-1.512-9.504-.287v2.23c2.52-.215 5.472-.287 6.192.648 1.008 1.226-1.152 6.554-2.09 8.857-.286.72.36 1.008 1.01.504 3.24-2.735 4.607-7.704 4.68-10.296v-.428zM80.28 33.48c-7.56 4.535-17.352 6.912-25.848 6.912-13.68 0-25.92-5.04-35.208-13.465-.792-.647-.145-1.584.792-1.08 10.008 5.832 22.392 9.36 35.208 9.36 8.063 0 16.775-1.513 25.056-4.752v3.025zm0-8.496c-1.152.36-2.16.863-3.096 1.513-.72.504-.576 1.15.144 1.08.792-.146 1.8-.218 2.952-.36v-2.233z"/><path d="M211.03 4.896v-.36c1.01 0 1.802-.792 1.802-1.8 0-1.01-.865-1.8-1.8-1.8v-.36c1.15 0 2.16.936 2.16 2.16 0 1.152-1.008 2.16-2.16 2.16zm0-1.944h.073c.145 0 .217.07.217.216 0 .072.07.647.143.792h.504c-.07-.145-.143-.433-.143-.648-.072-.288-.072-.504-.434-.576.217-.07.504-.145.504-.575 0-.647-.574-.647-.863-.647v.36c.146 0 .36 0 .36.36 0 .144-.07.36-.36.36v.36zm0-2.376v.36c-1.007 0-1.87.79-1.87 1.8 0 1.008.863 1.8 1.87 1.8v.36c-1.224 0-2.23-.937-2.23-2.16 0-1.224 1.007-2.16 2.23-2.16zm0 .936h-.862V3.96h.504V2.952h.36v-.36h-.36v-.72h.36v-.36zm-42.407 22.32V20.88c1.873-.07 3.385-1.224 4.32-3.168.793-1.8.938-3.888.938-5.832 0-2.16-.216-4.393-1.224-6.264-.865-1.584-2.45-2.593-4.033-2.664V.072h.362c5.76 0 8.64 5.832 8.64 11.88-.003 6.264-3.17 11.808-9.003 11.88zm12.025-.432c-.433-.07-.793-.36-.793-.793V1.367c.07-.36.36-.647.793-.72h1.512c.432 0 .72.36.79.72v3.097c1.08-2.448 3.1-4.393 5.618-4.393h.361c2.662 0 4.68 2.018 5.398 4.897C195.48 2.16 197.64.07 200.518.07h.29c2.018 0 3.96 1.298 4.97 3.313.935 1.872.935 4.392.935 6.48v12.742c0 .434-.358.722-.79.793h-1.802c-.357-.07-.718-.288-.79-.72V9.864c0-1.513.072-3.17-.504-4.536-.648-1.44-1.873-2.306-3.168-2.377-1.44.07-2.736 1.15-3.6 2.592-1.152 1.8-1.08 3.456-1.08 5.616v11.593c-.072.288-.36.576-.793.647h-1.8c-.434-.07-.793-.36-.793-.793V9c0-1.225-.07-2.736-.647-3.816-.648-1.296-1.87-2.16-3.096-2.23-1.368.07-2.665 1.08-3.456 2.23-1.01 1.512-1.226 3.312-1.226 5.185v12.237c0 .434-.287.722-.72.793h-1.8zM168.623.072v2.88h-.07c-1.8.072-3.456 1.297-4.32 3.24-.72 1.656-.937 3.816-.937 5.688 0 2.088.29 4.464 1.152 6.264.793 1.584 2.377 2.736 4.104 2.736h.07v2.952h-.507c-5.902 0-8.496-5.977-8.496-11.952.003-6.336 3.1-11.736 9.003-11.808zm-64.08 23.76v-4.32c3.1-.072 3.24-4.536 3.24-7.2 0-1.8-.072-3.96-.646-5.688-.434-1.44-1.298-2.017-2.594-2.088V.216c6.048.072 9.36 5.328 9.36 12.024 0 6.48-3.67 11.52-9.36 11.592zm45.217-3.023c2.593-.073 4.03-2.09 4.607-4.897.072-.288.36-.576.72-.576h1.73c.432 0 .79.36.79.72-.79 4.608-3.6 7.776-7.63 7.776h-.362c-5.832 0-8.352-5.832-8.352-11.81 0-5.902 2.592-11.95 8.424-11.95h.292c4.104 0 6.98 3.168 7.63 7.848 0 .29-.358.648-.718.648h-1.874c-.36-.07-.576-.36-.648-.72-.432-2.664-1.943-4.752-4.463-4.824-3.96.145-5.113 5.04-5.113 8.784 0 3.672.937 8.856 4.968 9zm-9 .862c0-1.08-.936-1.944-2.016-1.944-1.152 0-2.088.864-2.088 1.944s.936 1.944 2.088 1.944c1.08 0 2.016-.864 2.016-1.944zM121.896 23.4h-4.105c-.43-.072-.79-.36-.79-.793V1.367c.072-.432.36-.72.79-.72h3.89c.36 0 .648.288.722.648v3.24h.072c1.15-2.952 2.807-4.32 5.688-4.32 1.8 0 3.672.648 4.824 2.52 1.08 1.73 1.08 4.537 1.08 6.625v13.32c-.072.36-.36.72-.793.72h-4.176c-.36-.07-.722-.358-.722-.72V11.232c0-2.376.29-5.76-2.592-5.76-1.008 0-1.943.648-2.447 1.73-.575 1.295-.647 2.59-.647 4.03v11.375c-.002.433-.362.793-.794.793zM77.544 4.392V1.368c0-.433.36-.792.792-.792h13.608c.432 0 .792.36.792.792V3.96c0 .432-.36 1.008-1.008 1.943l-7.057 10.08c2.593-.07 5.4.36 7.777 1.656.504.36.647.79.72 1.224v3.168c0 .432-.504.937-1.008.72-4.25-2.232-9.793-2.447-14.4 0-.505.288-1.01-.288-1.01-.72v-3.024c0-.432 0-1.296.505-2.088l8.208-11.736h-7.128c-.43 0-.79-.288-.79-.792zm27-4.176v4.32c-3.096 0-3.238 4.176-3.238 6.768 0 2.664-.072 8.208 3.168 8.208h.07v4.32h-.07c-6.05 0-9.36-5.256-9.36-11.81 0-6.623 3.384-11.807 9.36-11.807h.07zM63.576 23.328v-3.816c.937-.216 1.73-.864 2.304-1.872.792-1.44.792-2.736.792-4.392v-.864c-1.08 0-2.16.072-3.096.288V9.36c1.08-.144 2.16-.216 3.096-.288v-.576c0-1.01.072-2.16-.504-3.024-.504-.72-1.512-1.08-2.376-1.08h-.216V0h.864c2.016 0 4.607.576 6.19 2.088 2.018 1.872 1.873 4.392 1.873 7.128v6.48c0 1.943.792 2.808 1.513 3.815.288.36.36.793 0 1.08-.792.722-2.305 2.017-3.168 2.737-.288.217-.648.217-1.008.073-1.367-1.15-1.584-1.655-2.376-2.735-1.368 1.44-2.52 2.23-3.888 2.663zm0-23.328v4.392c-1.512.145-2.736.937-3.096 2.52-.072.36-.36.72-.72.793L55.727 7.2c-.36-.072-.72-.288-.576-.864C56.016 1.8 59.832.216 63.576 0zm0 9.36v3.312c-1.728.504-3.096 1.584-3.096 3.888 0 1.8.936 3.024 2.52 3.024.216 0 .36-.072.576-.072v3.816c-.864.216-1.8.358-2.952.358-3.456 0-6.19-2.16-6.19-6.407 0-3.385 1.8-5.69 4.39-6.77 1.368-.645 3.096-.934 4.752-1.15zM9.144 23.328v-3.816c.936-.216 1.8-.864 2.304-1.872.864-1.44.792-2.736.792-4.392v-.864c-1.08 0-2.16.072-3.096.288V9.36c1.08-.144 2.16-.216 3.096-.288v-.576c0-1.01.072-2.16-.504-3.024-.504-.72-1.44-1.08-2.304-1.08h-.288V0h.863c2.017 0 4.608.576 6.265 2.088 2.016 1.872 1.8 4.392 1.8 7.128v6.48c0 1.943.792 2.808 1.584 3.815.216.36.288.793-.072 1.08-.792.722-2.304 2.017-3.168 2.737-.288.216-.647.216-1.008.07-1.368-1.15-1.584-1.654-2.376-2.734-1.368 1.44-2.52 2.233-3.888 2.665zm18.648.072h-4.176c-.432-.07-.72-.36-.72-.72V1.44c0-.432.36-.792.792-.792h3.815c.433 0 .792.36.792.72v2.81h.072c1.008-2.737 2.88-3.96 5.472-3.96 2.592 0 4.247 1.223 5.4 3.96 1.007-2.737 3.24-3.96 5.687-3.96 1.8 0 3.672.72 4.823 2.303 1.296 1.8 1.08 4.394 1.08 6.697V22.61c0 .433-.36.792-.864.792h-4.104c-.432-.07-.72-.36-.72-.793V11.375c0-.864.07-3.168-.145-3.96-.288-1.44-1.224-1.872-2.448-1.872-1.01 0-2.017.647-2.448 1.728-.433 1.08-.433 2.88-.433 4.104v11.23c0 .434-.36.793-.793.793H34.7c-.358-.072-.72-.36-.72-.794v-11.23c0-2.376.36-5.904-2.52-5.904-3.023 0-2.88 3.456-2.88 5.904v11.23c.004.434-.356.794-.788.794zM9.144 0v4.392c-1.44.145-2.736.937-3.097 2.52-.07.36-.288.72-.72.793L1.297 7.2c-.29-.072-.72-.288-.577-.864C1.584 1.8 5.472.216 9.144 0zm0 9.36v3.312c-1.73.504-3.097 1.584-3.097 3.888 0 1.8.937 3.024 2.52 3.024.217 0 .433-.072.577-.072v3.816c-.864.216-1.8.358-2.952.358C2.736 23.688 0 21.528 0 17.28c0-3.384 1.8-5.688 4.464-6.768 1.368-.647 3.024-.936 4.68-1.152z"/></svg>