<svg xmlns="http://www.w3.org/2000/svg" width="504.208" height="443.198" viewBox="0 0 504.208 443.198"><g><path fill="#55382A" d="M179.1.1h30c.183.785.762.93 1.466.99 10.366.887 20.294 3.547 29.772 7.762C271.46 22.694 290.84 46.958 301.86 78.56c.713 2.044.88 4.114 3.78 4.52 5.77.808 11.373 2.474 16.803 4.558 2.53.972 3.387.076 4.51-2.03 19.322-36.316 49.843-57.13 89.985-64.09 10.22-1.772 20.632-1.38 31.146 1.985-2.646 3.056-4.933 5.676-7.196 8.316-11.596 13.522-19.807 28.662-22.543 46.508-1.235 8.055-2.582 16.106-4.292 24.07-4.887 22.772-15.43 41.78-36.817 53.085-14.327 7.57-29.882 9.74-45.886 9.88-3.382.03-4.996-1.036-6.313-4.103-4.778-11.127-4.907-11.113-16.548-6.42-2.06.83-4.767.858-5.67 3.52-1.384 4.08-4.162 8.482-3.454 12.196.447 2.348 6.585 1.21 10.123 1.918 1.14.228 2.3.37 3.456.505 39.844 4.664 79.536 10.31 118.675 19.25 18.474 4.222 36.815 8.946 53.838 17.73 9.09 4.688 14.368 11.972 16.78 21.737.528 2.135.022 4.638 1.86 6.404v14c-1.056.274-.928 1.192-1.102 1.972-3.695 16.563-14.403 25.83-30.736 28.548-4.41.734-5.985 1.51-6.073 6.5-.165 9.36-6.94 14.768-14.413 18.903-12.228 6.767-25.393 8.45-39.16 6.436-1.784-.262-4.188-2.18-5.648.876-3.453 7.23-9.94 10.608-17.1 12.638-15.605 4.424-30.597 2.984-44.688-5.546-1.094-.662-2.404-3.23-4.04-.77-4.99 7.52-12.69 8.273-20.65 8.632-11.754.528-22.723-2.362-33.24-7.35-.3-.767-1.052-1.02-1.526-.58-.725.67.35.924.615 1.375.568 1.01 1.117 2.03 1.708 3.028 8.05 13.575 16.23 27.086 22.515 41.606 4.396 10.155 3.41 19.927-2.008 29.608-2.477 4.424-8.69 3.932-10.28 8.062-1.734 4.514-2.907 9.158-6.3 12.783-8.977 9.587-20.255 12.758-33.023 11.8-1.914-.144-4.413-1.65-5.68.11-5.043 7.016-12.4 9.964-20.17 12.366h-11c-6.77-1.73-12.905-8.398-20.704-2.47-1.176.893-3.187.835-4.83.943-8.927.59-23.09-5.08-26.932-16.745-4.04-12.27-9.12-24.2-13.83-36.494-.398.59-.69.942-.896 1.34-11.353 21.74-34.475 29.35-56.238 18.45-12.07-6.045-22.14-14.71-31.086-24.653-35.993-39.994-56.247-87.27-64.63-140.05-.97-6.104-.44-12.448-2.854-18.32v-35c1.368-.397.924-1.57 1.018-2.47.927-8.94 2.135-17.824 3.845-26.663 15.25-78.843 75.97-140.654 154.374-157.2C165.904 2.383 172.693 2.28 179.1.102zM396.935 52.92l.744.796c-15.196 14.684-25.526 32.713-35.31 51.143-1.27 2.395-.475 3.41 1.41 4.762 6.914 4.954 13.562 10.31 19.423 16.447 3.586 3.756 5.132 2.863 7.442-1.084 7.043-12.03 9.758-25.378 12.423-38.77 2.563-12.883 4.638-25.888 10.635-37.82 2.358-4.694 5.615-8.764 9.174-13.1-1.213-.103-1.72-.235-2.2-.173-36.75 4.802-63.288 24.35-81.272 56.27-1.202 2.132-.556 3.158 1.52 4.168 3.434 1.673 6.823 3.494 10.024 5.572 2.472 1.605 3.614 1.085 4.822-1.472 4.214-8.912 9.395-17.265 15.626-24.903 7.18-8.804 14.9-17.046 25.538-21.837zm-128.858 156.2l.035-.023c-.754.306-1.596.483-2.248.936-24.444 16.974-52.35 20.86-81.217 21.71.535-1.333 1.62-1.35 2.555-1.583 7.27-1.826 14.427-4 21.41-6.736 23.852-9.338 44.886-22.485 60.01-43.83 2.243-3.167 2.304-5.513.417-8.937-7.123-12.924-10.69-26.937-10.408-41.672.336-17.472 6.533-32.825 18.422-45.742 1.8-1.954 2.18-3.71 1.06-6.24-9.41-21.22-24.147-37.272-45.275-47.245-19.174-9.05-39.407-9.307-59.72-6.328-49.632 7.28-88.844 32.023-117.19 73.164-28.976 42.055-38.54 88.983-31.48 139.316 2.057 14.662 5.81 29.014 12.61 42.358.572 1.546 1 3.165 1.74 4.627 31.272 61.722 81.182 95.76 150.4 100.59 29.826 2.08 54.39-8.975 71.84-33.23 9.865-13.716 18.456-28.716 12.784-47.09 8.61 7.61 18.902 11.16 30.152 11.554 7.98.28 17.343.625 21.994-6.58 3.88-6.007 6.7-4.106 10.878-2.275 1.518.663 3.133 1.15 4.747 1.536 10.877 2.593 21.74 3.67 32.178-1.598 4.607-2.325 8.59-5.654 8.44-11.383-.107-4.104 1.168-4.75 4.912-3.837 10.127 2.474 20.13 2.353 29.644-2.64 5.12-2.69 8.694-6.595 10.016-12.382.82-3.592-1.228-6.665-2.1-10.65 5.73 1.486 11.03 1.52 16.313 1.214 8.457-.488 15.856-3.584 21.816-9.716 2.078-2.14 3.005-3.902-1.298-4.812-21.807-4.61-43.594-9.308-65.594-12.933-16.13-3.877-32.53-6.382-48.802-9.55-9.562-1.86-19.162-3.53-28.745-5.284l.12-.86 22.82 1.3c9.747.92 19.496 1.822 29.24 2.766 19.528 1.89 39.063 3.712 58.576 5.736 11.906 1.235 23.785 2.747 35.663 4.236 4.012.502 4.766-.86 3.13-4.373-2.5-5.37-6.087-9.583-11.914-11.335-5.89-1.77-11.85-3.31-17.776-4.95-24.84-6.322-50.04-10.876-75.31-15.03-24.79-4.077-49.67-7.58-74.76-9.287-1.89-.13-3.942-.82-5.424 1.356-3.777 5.545-8.815 9.938-13.615 14.54l-1.05 1.193zm5.844-76.496c2.01-1.144 3.644-.89 5.24-.7 10.457 1.235 20.584.036 30.31-4.09 11.253-4.77 22.827-5.114 34.734-3.07 7.178 1.23 14.17 3.2 21.328 4.642C343.3 110.02 318.47 96.5 288.428 94.476c-2.204-.148-3.782.473-5.034 2.377-11.11 16.882-13.89 34.82-7.25 54.107 1.108 3.222 2.328 3.238 4.91 1.59 3.213-2.052 6.662-3.747 10.076-5.464 7.28-3.662 14.683-7.072 22.593-9.164 2.436-.645 4.05-1.69 3.134-4.38-.914-2.682-2.726-.624-4-.354-5.197 1.103-10.293 2.806-15.53 3.563-7.96 1.153-15.958 1.418-23.405-4.128zm102.12 7.44c-6.256-3.14-12.085-4.36-17.81-5.816-8.235-2.098-8.26-2-12.84 4.31-1.21-7.76-1.21-7.76-10.112-8.617-.33-.033-.67-.03-.99-.107-2.88-.694-4.017.304-3.622 3.337.69 5.305 2.104 10.394 3.95 15.396.662 1.788 1.61 2.68 3.633 2.562 13.097-.764 25.542-3.69 37.792-11.066z"/><path fill-rule="evenodd" clip-rule="evenodd" fill="#EE5734" d="M37.057 278.264c-6.8-13.345-10.553-27.696-12.61-42.358-7.06-50.333 2.505-97.262 31.48-139.317 28.347-41.142 67.56-65.886 117.192-73.165 20.31-2.98 40.544-2.722 59.717 6.328 21.127 9.973 35.866 26.024 45.274 47.245 1.123 2.53.74 4.286-1.058 6.24-11.89 12.917-18.086 28.27-18.422 45.743-.28 14.736 3.285 28.75 10.408 41.673 1.887 3.424 1.826 5.77-.418 8.937-15.123 21.345-36.157 34.492-60.008 43.83-6.983 2.736-14.14 4.91-21.41 6.737-.935.234-2.02.25-2.556 1.584 28.866-.85 56.773-4.736 81.217-21.71.652-.45 1.494-.63 2.248-.935.263 1.795-.704 3.205-1.493 4.655-3.904 7.17-8.1 14.162-13.07 20.65-30.138 39.324-70.89 58.378-122.405 43.895-5.202-1.462-9.688-2.187-14.224 1.717-1.912 1.646-4.76 2.36-7.298 3.095-24.76 7.154-48.966 5.62-72.563-4.843zM195.26 70c-24.87-.026-44.143 19.092-44.163 43.806-.02 24.12 19.624 43.983 43.68 44.17 24.124.19 44.21-19.882 44.224-44.185.013-24.358-19.37-43.765-43.74-43.79z"/><path fill-rule="evenodd" clip-rule="evenodd" fill="#FDCB2F" d="M37.057 278.264c23.598 10.462 47.805 11.997 72.565 4.843 2.54-.733 5.386-1.45 7.298-3.095 4.536-3.903 9.022-3.18 14.224-1.717 51.515 14.483 92.268-4.57 122.404-43.896 4.972-6.488 9.167-13.48 13.07-20.65.79-1.45 1.757-2.86 1.495-4.655l-.035.022 1.05-1.193c4.8-4.604 9.838-8.996 13.615-14.54 1.48-2.177 3.535-1.486 5.423-1.357 25.092 1.708 49.97 5.21 74.762 9.287 25.268 4.154 50.468 8.708 75.306 15.03-.952.242-1.89.614-2.854.713-31.294 3.18-62.624 5.906-94.062 7.21-7.606-.435-15.213-.868-22.82-1.302l-.12.86c9.583 1.755 19.183 3.425 28.745 5.285 16.27 3.167 32.67 5.672 48.802 9.548-.032 4.322-2.127 7.62-5.312 10.273-7.617 6.348-16.262 8.874-26.04 6.513-2.506-.605-3.76-.67-3.157 2.595.928 5.016-1.312 9.073-4.683 12.58-3.288 3.422-7.296 5.77-11.7 7.423-10.72 4.027-21.3 4.23-31.51-1.75-4.565 16.204-23.625 20.115-46.797 9.565 2.027 6.265 4.334 11.87 7.098 17.305 5.672 18.373-2.92 33.373-12.785 47.09-17.45 24.255-42.014 35.31-71.84 33.23-69.218-4.83-119.127-38.87-150.4-100.59-.742-1.46-1.17-3.08-1.743-4.626zm229.312 6.404l.308.194.022-.348-.33.154z"/><path fill-rule="evenodd" clip-rule="evenodd" fill="#2CAE2B" d="M273.822 303.16c-2.764-5.434-5.07-11.04-7.098-17.305 23.172 10.55 42.23 6.64 46.798-9.564 10.208 5.98 20.79 5.777 31.508 1.75 4.405-1.653 8.413-4 11.7-7.422 3.37-3.507 5.61-7.564 4.684-12.58-.603-3.264.65-3.2 3.156-2.595 9.78 2.36 18.424-.165 26.04-6.512 3.187-2.652 5.28-5.95 5.313-10.272 22 3.625 43.787 8.323 65.594 12.933 4.303.91 3.376 2.675 1.298 4.813-5.96 6.132-13.36 9.228-21.817 9.716-5.283.305-10.584.27-16.312-1.216.87 3.986 2.92 7.06 2.1 10.65-1.322 5.788-4.896 9.693-10.018 12.382-9.515 4.993-19.517 5.114-29.644 2.64-3.744-.913-5.02-.266-4.912 3.838.15 5.73-3.833 9.058-8.44 11.383-10.438 5.27-21.3 4.19-32.178 1.598-1.614-.385-3.23-.873-4.747-1.537-4.178-1.83-7-3.73-10.878 2.276-4.652 7.204-14.015 6.86-21.995 6.58-11.25-.395-21.543-3.945-30.153-11.554z"/><path fill-rule="evenodd" clip-rule="evenodd" fill="#01A9EA" d="M396.936 52.918c-10.64 4.79-18.357 13.033-25.538 21.837-6.23 7.64-11.412 15.99-15.626 24.903-1.208 2.557-2.35 3.077-4.823 1.472-3.202-2.078-6.592-3.9-10.026-5.572-2.074-1.01-2.72-2.036-1.52-4.168 17.985-31.92 44.522-51.468 81.272-56.27.48-.062.988.07 2.2.172-3.558 4.337-6.814 8.406-9.173 13.1-5.997 11.934-8.07 24.938-10.635 37.82-2.665 13.393-5.38 26.74-12.423 38.77-2.31 3.948-3.856 4.84-7.442 1.085-5.86-6.138-12.51-11.493-19.422-16.448-1.885-1.353-2.682-2.368-1.41-4.763 9.783-18.43 20.113-36.46 35.31-51.143.324-.424 1.313-.688.762-1.32-.432-.498-1.15-.116-1.506.524z"/><path fill-rule="evenodd" clip-rule="evenodd" fill="#CECECE" d="M273.922 132.622c7.446 5.546 15.444 5.28 23.404 4.13 5.237-.758 10.333-2.46 15.53-3.563 1.274-.272 3.086-2.33 4 .353.916 2.688-.698 3.735-3.134 4.38-7.91 2.092-15.312 5.502-22.593 9.164-3.415 1.717-6.864 3.412-10.077 5.464-2.582 1.65-3.802 1.633-4.91-1.59-6.64-19.287-3.86-37.225 7.25-54.106 1.252-1.904 2.83-2.525 5.034-2.377 30.043 2.023 54.87 15.543 77.106 34.928-7.158-1.44-14.15-3.41-21.328-4.643-11.907-2.043-23.48-1.7-34.734 3.072-9.725 4.125-19.852 5.324-30.31 4.09-1.594-.19-3.23-.445-5.238.698z"/><path fill-rule="evenodd" clip-rule="evenodd" fill="#2CAE2B" d="M341.317 224.266c31.438-1.303 62.77-4.028 94.062-7.21.964-.098 1.9-.47 2.853-.713 5.93 1.642 11.89 3.18 17.78 4.95 5.826 1.753 9.413 5.965 11.914 11.337 1.635 3.514.88 4.875-3.13 4.373-11.88-1.49-23.758-3-35.664-4.236-19.514-2.024-39.048-3.847-58.575-5.736-9.745-.943-19.494-1.844-29.24-2.764z"/><path fill-rule="evenodd" clip-rule="evenodd" fill="#01A9EA" d="M376.042 140.062c-12.25 7.375-24.694 10.303-37.79 11.063-2.024.117-2.972-.773-3.633-2.562-1.85-5.002-3.262-10.09-3.952-15.396-.395-3.033.74-4.03 3.62-3.337.32.077.66.074.992.106 8.903.857 8.903.857 10.112 8.618 4.58-6.31 4.604-6.408 12.84-4.31 5.725 1.458 11.554 2.678 17.81 5.818z"/><path fill-rule="evenodd" clip-rule="evenodd" fill="#FEFDFD" d="M286.335 323.734c-.266-.45-1.34-.704-.615-1.376.475-.44 1.226-.186 1.525.58-.302.266-.606.53-.91.796z"/><path fill-rule="evenodd" clip-rule="evenodd" fill="#EE5734" d="M269.127 207.924l-1.05 1.193 1.05-1.193z"/><path fill-rule="evenodd" clip-rule="evenodd" fill="#FDCB2F" d="M195.26 70c24.37.025 43.753 19.432 43.74 43.79-.01 24.304-20.1 44.374-44.222 44.187-24.057-.188-43.7-20.052-43.68-44.17.02-24.715 19.293-43.833 44.16-43.807zm26.002 44.057c.068-14.944-11.662-26.87-26.348-26.783-14.405.084-26.198 11.94-26.335 26.478-.137 14.438 11.695 26.31 26.26 26.352 14.758.04 26.354-11.392 26.422-26.047z"/><path fill-rule="evenodd" clip-rule="evenodd" fill="#2CAE2B" d="M266.37 284.668l.33-.153-.023.347z"/><path fill-rule="evenodd" clip-rule="evenodd" fill="#55382A" d="M396.936 52.918c.355-.64 1.074-1.022 1.506-.525.552.634-.438.897-.762 1.32l-.744-.795zM221.262 114.057c-.067 14.655-11.664 26.087-26.42 26.046-14.566-.04-26.4-11.914-26.263-26.352.136-14.536 11.93-26.393 26.334-26.477 14.686-.085 26.416 11.84 26.348 26.784zM194.96 92.594c-4.248-.015-8.286.767-11.782 3.347-4.61 3.4-4.73 8.617-.33 12.197 5.982 4.868 18.403 4.822 24.355-.09 4.394-3.626 4.222-8.8-.44-12.153-3.522-2.533-7.55-3.33-11.803-3.3z"/><path fill-rule="evenodd" clip-rule="evenodd" fill="#FEFDFD" d="M194.962 92.596c4.25-.03 8.28.766 11.8 3.298 4.663 3.354 4.834 8.527.44 12.153-5.95 4.912-18.372 4.958-24.354.09-4.4-3.58-4.28-8.797.33-12.196 3.496-2.58 7.534-3.36 11.784-3.344z"/></g></svg>