<svg xmlns="http://www.w3.org/2000/svg" width="397.668" height="136.008" viewBox="0 0 397.668 136.008"><g fill="#fff"><path d="M196.014 52.518c7.027 0 11.718 2.787 11.718 9.703 0 5.133-1.396 7.364-4.465 9.09 3.457 1.396 5.297 3.685 5.297 8.923 0 7.758-4.683 10.873-12.157 10.873H181.52V52.518h14.494zm-8.026 6.023v10.205h7.86c3.632 0 5.134-1.836 5.134-5.406 0-3.403-1.73-4.8-5.302-4.8h-7.692zm0 16.117v10.43h8.09c3.676 0 5.736-1.393 5.736-5.354 0-4.013-2.788-5.075-5.853-5.075h-7.972zM215.332 63.28h6.355v2.953s3.676-2.73 8.414-3.62v5.913c-5.02 1-8.413 3.79-8.413 3.79v18.79h-6.355V63.278zM256.64 91.254h-6.147V89.82s-3.134 1.896-8.394 1.904c-5.304.004-8.087-3.407-8.087-8.927 0-5.97 3.295-8.026 9.314-8.48l6.916-.554v-1.675c0-2.176-1.342-3.346-3.458-3.346-4.124 0-9.978.504-9.978.504l-.227-5.414s6.412-1.222 10.536-1.222c6.14 0 9.485 2.566 9.485 9.427V83.52l.04 7.734zm-12.527-12.192c-2.407.222-3.684 1.28-3.684 3.567 0 2.344 1 3.628 2.84 3.628 2.96 0 6.974-1.113 6.974-1.113v-6.42l-6.13.337zM265.092 91.105V63.28h6.354v1.395s4.404-2.062 7.47-2.062c7.763 0 9.71 4.568 9.71 13.943v14.55h-6.357v-14.5c0-5.297-.667-8.023-4.572-8.023-2.455 0-6.25 1.28-6.25 1.28v21.242h-6.356zM319.416 91.105h-6.42V89.77s-3.954 1.955-7.245 1.955c-7.42 0-10.596-4.18-10.596-14.725 0-9.98 3.685-14.388 11.596-14.388 2.177 0 5.968.666 6.245.726V52.073h6.42v39.032zm-6.42-6.52v-15.67c-.278 0-3.454-.503-5.794-.503-3.85 0-5.584 2.51-5.584 8.645 0 6.75 1.733 8.646 5.132 8.756 2.736-.057 6.245-1.227 6.245-1.227zM328.957 51.736h6.354v39.37h-6.353v-39.37zM345.287 52.014h6.355v6.75h-6.355v-6.75zm0 11.265h6.355v27.825h-6.355V63.28zM362.188 61.55c0-8.03 2.017-10.373 7.924-10.373 1.837 0 6.627.61 6.627.61l-.062 5.247s-3.22-.11-4.953-.11c-2.45 0-3.176 1.117-3.176 4.683v1.673h7.743v5.746h-7.744v22.08h-6.362V61.55zM383.62 55.19h6.358v8.09h7.522v5.745h-7.522v11.377c0 3.847.11 5.3 2.896 5.3 1.562 0 4.517-.172 4.517-.172l.278 5.47s-3.734.78-5.682.78c-6.418 0-8.367-2.455-8.367-10.484V55.19z"/></g><path fill="#3CB4E7" d="M77.617 38.814c0 21.43-17.37 38.804-38.81 38.804C17.358 77.618 0 60.245 0 38.814 0 17.366 17.36 0 38.807 0c21.44 0 38.81 17.366 38.81 38.814z"/><path fill="#E65621" d="M149.48 74.114c0 34.193-27.713 61.895-61.9 61.895-34.19 0-61.907-27.702-61.907-61.896 0-34.2 27.716-61.902 61.906-61.902 34.188 0 61.9 27.704 61.9 61.902z"/><path fill="#434A4F" d="M25.69 75.34s-2.87-44.19 43.538-60.48c0 0 18.598 21.477.816 46.986 0 0-15.546 23.12-44.354 13.494z"/><path fill="#fff" d="M58.49 39.366c3.342 0 6.402.318 9.15.928 2.764.623 5.124 1.637 7.094 3.06 1.982 1.407 3.488 3.28 4.59 5.63 1.068 2.334 1.62 5.22 1.62 8.67 0 3.723-.8 6.817-2.403 9.288-1.63 2.49-3.993 4.514-7.15 6.098 4.33 1.307 7.566 3.6 9.702 6.88 2.137 3.264 3.212 7.212 3.212 11.83 0 3.708-.693 6.923-2.072 9.645-1.39 2.723-3.24 4.94-5.575 6.667-2.328 1.71-4.986 2.99-7.977 3.823-2.99.824-6.064 1.232-9.215 1.232h-34.09v-73.75H58.49zM56.5 69.22c2.773 0 5.033-.69 6.808-2.064 1.774-1.373 2.662-3.62 2.662-6.717 0-1.715-.29-3.126-.888-4.227-.596-1.102-1.386-1.97-2.368-2.592-.974-.615-2.112-1.04-3.395-1.292-1.287-.234-2.613-.362-4.002-.362H40.846v17.25H56.5v.003zm.898 31.3c1.5 0 2.954-.152 4.343-.464 1.37-.312 2.58-.834 3.64-1.558 1.05-.717 1.884-1.705 2.513-2.94.612-1.242.938-2.825.938-4.748 0-3.776-1.03-6.493-3.053-8.106-2.03-1.62-4.735-2.422-8.087-2.422H40.846v20.24h16.552z"/></svg>