<svg xmlns="http://www.w3.org/2000/svg" width="218.373" height="91.21" viewBox="0 0 218.373 91.21"><path fill="#fff" d="M147.062 31.308c1.563 2.002 3.22 4.788 3.22 8.79 0 9.66-7.57 15.317-18.535 15.317-2.787 0-5.312-.348-6.876-.783l-2.873 4.613 8.528.52c15.058.96 23.932 1.397 23.932 12.967 0 10.012-8.787 15.665-23.932 15.665-15.752 0-21.757-4.004-21.757-10.878 0-3.92 1.74-6.003 4.787-8.88-2.873-1.213-3.828-3.39-3.828-5.74 0-1.915.955-3.654 2.524-5.31 1.568-1.652 3.31-3.308 5.397-5.222-4.264-2.09-7.484-6.615-7.484-13.057 0-10.006 6.615-16.88 19.928-16.88 3.743 0 6.01.346 8.01.87h16.972v7.397l-8.01.61zM121.3 70.998c-1.133 1.39-2.263 2.867-2.263 4.61 0 3.48 4.437 4.526 10.53 4.526 5.048 0 11.924-.354 11.924-5.047 0-2.79-3.308-2.963-7.486-3.225l-12.704-.864zm9.573-39.953c-4.788 0-8.354 2.35-8.354 8.01 0 4.262 2.35 7.222 8.096 7.222 4.87 0 8.18-2.87 8.18-7.4-.003-5.132-2.963-7.832-7.923-7.832zM159.15 67.794V60.92l4.44-.605c1.22-.176 1.393-.437 1.393-1.744V32.985c0-.956-.26-1.567-1.133-1.826l-4.7-1.655.958-7.047h18.017V58.57c0 1.397.085 1.57 1.394 1.745l4.437.606v6.874H159.15zm11.23-52.3c-4.962 0-7.833-2.876-7.833-7.838 0-4.956 2.87-7.656 7.833-7.656 5.05 0 7.92 2.7 7.92 7.656 0 4.963-2.87 7.837-7.92 7.837zM218.373 64.42c-3.743 1.825-9.226 3.478-14.188 3.478-10.355 0-14.27-4.173-14.27-14.012v-22.8c0-.52 0-.87-.7-.87h-6.09V22.47c7.66-.873 10.704-4.703 11.66-14.188h8.27v12.362c0 .607 0 .87.698.87h12.27v8.702h-12.967v20.8c0 5.134 1.22 7.134 5.918 7.134 2.438 0 4.96-.607 7.05-1.39l2.35 7.66z"/><path fill="#F05133" d="M89.42 41.582L49.63 1.792c-2.29-2.293-6.007-2.293-8.3 0l-8.263 8.263 10.48 10.482c2.438-.823 5.23-.27 7.172 1.67 1.952 1.955 2.5 4.772 1.656 7.216l10.102 10.102c2.444-.842 5.264-.298 7.216 1.657 2.73 2.728 2.73 7.147 0 9.876s-7.148 2.73-9.878 0c-2.052-2.053-2.56-5.067-1.52-7.595l-9.42-9.422-.002 24.793c.666.33 1.293.77 1.847 1.32 2.728 2.73 2.728 7.147 0 9.88-2.73 2.728-7.15 2.728-9.876 0-2.727-2.73-2.727-7.15 0-9.88.675-.672 1.455-1.182 2.288-1.523V33.607c-.833-.34-1.61-.846-2.287-1.524-2.065-2.065-2.563-5.098-1.503-7.635L29.005 14.114 1.72 41.397c-2.292 2.294-2.292 6.01 0 8.304l39.793 39.792c2.29 2.29 6.007 2.29 8.3 0l39.608-39.607c2.293-2.294 2.293-6.01 0-8.303z"/></svg>