<svg xmlns="http://www.w3.org/2000/svg" width="75.801" height="97.348" viewBox="0 0 75.801 97.348"><path fill="#5A7DAD" d="M66.358 1.193L71.243 7.7s3.608 4.18 3.608 8.642.95 81.006.95 81.006l-8.546-2.47-.896-93.685z"/><path fill="#BCD1ED" d="M4.56 85.516l10.527 2.588 43.494-3.926-3.48-4.873z"/><path fill="#98B4DE" d="M67.254 94.877l.823-88.126s1.076-9.938-9.94-5.697C49.48 4.387 16.924 17.957 16.924 17.957s-7.154 3.42-8.546 11.965C7.197 37.165.21 76.455.21 76.455s-2.435 11.04 9.306 9.115c.998-.162 45.394-4.814 45.394-4.814l12.344 14.12z"/><path fill="#fff" d="M19.587 33.53l2.532-.76-4.053 29.125-2.785.506zM50.04 31.315l2.785-2.595s-1.71-3.292-7.154-3.672c-5.444-.38-16.654 4.75-19.56 17.664-2.81 12.48 5.123 15.764 9.116 16.145 5.604.53 11.896-2.596 16.522-11.27l-2.785-1.394s-4.244 7.18-8.877 8.55c-5.562 1.643-10.754.377-11.445-7.157-.688-7.516 5.443-15.7 10.636-17.98 5.19-2.28 8.484-.886 10.763 1.71z"/><g fill="#7896C3"><path d="M22.047 33.287l.072-.516-2.533.76-4.305 28.87.448-.08 4.237-28.41zM40.465 55.122c4.633-1.37 8.878-8.55 8.878-8.55l2.323 1.163c.026-.05.055-.1.08-.15l-2.784-1.392s-4.244 7.18-8.877 8.55c-3.445 1.018-6.748.918-8.928-1.096 2.165 2.38 5.657 2.555 9.308 1.475zM26.488 43.09C29.396 30.177 40.606 25.05 46.05 25.43c3.152.22 5.05 1.415 6.092 2.384-.925-1.004-2.89-2.514-6.472-2.764-5.445-.38-16.655 4.75-19.562 17.664-1.538 6.833.144 10.91 2.636 13.262-2.278-2.403-3.715-6.403-2.256-12.883z"/></g></svg>