<svg xmlns="http://www.w3.org/2000/svg" width="476.198" height="170.882" viewBox="0 0 476.198 170.882"><g><g fill="#fff"><path d="M145.077 86.223h10.556v71.833h-10.556V86.223zM174.592 120.625l-.88-3.323h-.587v40.755h-9.675V86.223h9.382l10.262 37.43.88 3.324h.586V86.224h9.676v71.832h-9.382l-10.262-37.43zM198.34 97.07V86.224h30.494V97.07h-9.97v60.986H208.31V97.07h-9.97zM232.94 86.223h24.14V97.07h-13.585v18.863h9.772v11.533h-9.772v19.74h13.584v10.85h-24.14V86.223zM281.805 158.056l-5.473-30.297h-2.834v30.296h-10.556V86.223h10.556c12.51 0 17.982 7.23 17.982 20.72 0 7.134-1.857 13.584-5.864 16.32l6.744 34.793h-10.555zM273.5 96.68v21.306c2.93 0 7.817-.39 7.817-10.653 0-10.262-4.887-10.653-7.818-10.653zM295.293 158.056l10.848-71.833h12.902l10.848 71.833h-10.262l-1.954-14.66H307.51l-1.955 14.66h-10.262zm17.885-48.475l-.293-1.855h-.587l-.293 1.856-3.03 22.675h7.233l-3.03-22.674zM362.24 133.427v9.87s.1 15.54-14.072 15.54c-14.172 0-14.073-15.54-14.073-15.54V100.98s-.1-15.54 14.073-15.54c14.17 0 14.073 15.54 14.073 15.54v9.87h-9.87v-9.87s.392-5.277-4.007-5.277c-3.714 0-3.714 5.277-3.714 5.277v42.318s0 5.277 3.713 5.277c4.398 0 4.007-5.277 4.007-5.277v-9.87h9.87zM364.88 97.07V86.224h30.493V97.07h-9.97v60.986H374.85V97.07h-9.968zM399.478 86.223h10.556v71.833h-10.556V86.223zM437.006 86.223h10.263l-10.947 71.833h-10.556l-10.945-71.833h10.262l5.277 39.483.392 3.03h.587l.39-3.03 5.276-39.483zM452.058 86.223h24.14V97.07h-13.584v18.863h9.772v11.533h-9.772v19.74h13.584v10.85h-24.14V86.223z"/></g><g fill="#fff"><path d="M151.923 23.38c8.04-.186 9.34 6.99 9.34 12.062l-6.557.618c0-3.03-.433-6.557-2.66-6.557-1.73.062-2.288 1.917-2.288 4.516 0 3.092 2.66 6.556 5.258 10.33 3.093 4.64 6.248 9.154 6.248 14.04 0 6.063-1.98 11.445-9.28 11.445-8.598 0-9.71-6.495-9.71-13.238l6.556-.618c0 3.772.37 7.73 3.155 7.73 1.98 0 2.722-2.164 2.722-5.01 0-3.03-2.846-6.68-5.38-10.517-3.156-4.64-6.126-9.278-6.126-14.165 0-4.947 2.414-10.515 8.723-10.638zM164.85 23.875h6.68v45.467h-6.68V23.875zM181.054 69.34h-6.557l7.36-23.877-7.237-21.59h6.558l3.65 11.507.185.557h.248l.187-.557 3.65-11.506h6.556l-7.237 21.59 7.36 23.877h-6.556l-3.836-13.546-.123-.557h-.247l-.123.557-3.836 13.547zM196.393 30.742v-6.867h19.3v6.867h-6.31v38.6h-6.68v-38.6h-6.31zM226.145 38.412l.186.434h.125l.186-.434 3.342-14.537h6.557l-6.806 26.104v19.36h-6.68V49.98l-6.806-26.105h6.558l3.34 14.537z"/></g><path fill="#fff" d="M251.582 45.22c3.108 0 5.613 2.505 5.613 5.613 0 3.2-2.505 5.705-5.613 5.705-3.2 0-5.705-2.505-5.705-5.705 0-3.108 2.504-5.613 5.705-5.613z"/><g fill="#fff"><path d="M286.948 30.742h-9.217V42.68h6.187v6.866h-6.186V69.34h-6.68V23.876h15.897v6.867zM298.143 69.836c-8.97 0-8.908-9.836-8.908-9.836V33.215s-.062-9.835 8.908-9.835 8.907 9.835 8.907 9.835V60s.063 9.836-8.907 9.836zm0-39.96c-2.35 0-2.228 3.34-2.228 3.34V60s-.123 3.34 2.228 3.34S300.37 60 300.37 60V33.215s.124-3.34-2.227-3.34zM329.317 23.875V60s.062 9.836-8.907 9.836S311.5 60 311.5 60V23.875h6.683V60s-.124 3.34 2.227 3.34 2.226-3.34 2.226-3.34V23.875h6.68zM346.14 69.34l-3.463-19.176h-1.794V69.34h-6.68V23.876h6.68c7.918 0 11.382 4.578 11.382 13.114 0 4.515-1.175 8.598-3.71 10.33l4.267 22.02h-6.68zm-5.257-38.846V43.98c1.855 0 4.948-.248 4.948-6.743s-3.09-6.743-4.947-6.743z"/></g><linearGradient id="a" gradientUnits="userSpaceOnUse" x1="61.14" x2="61.14" y2="170.883"><stop offset="0" stop-color="#6E6E6E"/><stop offset="1" stop-color="#505150"/></linearGradient><path fill="url(#a)" d="M68.734 117.676c.877 1.19 1.852 2.33 2.928 3.405 11.58 11.58 30.355 11.58 41.936 0 11.58-11.58 11.58-30.353 0-41.933-7.715-7.714-18.616-10.282-28.46-7.72-1.678-2.075-3.014-4.462-3.882-7.128-.718-2.217-1.06-4.464-1.086-6.688 4.047-1.428 7.846-3.758 11.083-6.995 11.58-11.58 11.584-30.355.003-41.934C79.678-2.895 60.9-2.895 49.32 8.686c-11.578 11.58-11.576 30.355 0 41.933 6.58 6.577 15.48 9.413 24.066 8.516 1.16 1.707 2.11 3.59 2.776 5.646 1.093 3.36 1.34 6.8.878 10.114-1.91 1.183-3.72 2.594-5.377 4.252-8.308 8.31-10.654 20.32-7.042 30.717-1.44 2.71-3.432 5.157-5.982 7.146-2.292 1.786-4.826 3.05-7.473 3.832-.184-.19-.36-.386-.548-.575-11.58-11.58-30.352-11.582-41.932-.002-11.58 11.583-11.583 30.355-.002 41.937 11.577 11.576 30.355 11.576 41.934-.006 9.478-9.477 11.19-23.772 5.155-34.998 1.332-2.08 3.008-3.97 5.053-5.566 2.42-1.883 5.106-3.19 7.91-3.956"/><path fill="#fff" d="M92.47 108.987h-7.272v-4.136l6.88-20.9h4.703v20.9h2.178v4.137H96.78v6.967h-4.31v-6.967zm-3.266-4.136h3.266V93.88h-.26l-.263.958-2.743 10.015zM76.97 38.364c0 1.524-.393 6.923-6.14 6.923s-6.14-5.4-6.14-6.923v-18.2c0-2.265.26-7.578 6.14-7.578 5.877 0 6.14 5.312 6.14 7.577v2.003h-4.704c0-4.31-.087-5.486-1.437-5.486-1.177 0-1.438 1.045-1.438 3.483v5.704c.783-.48 1.523-.784 2.35-.784 4.835 0 5.227 4.964 5.227 6.75v6.53zm-6.14 2.83c1 0 1.437-1.045 1.437-1.437v-9.58c0-.392-.436-1.437-1.437-1.437-1.002 0-1.394.87-1.437 1.306v9.71c0 .393.348 1.438 1.437 1.438zM27.54 125.917h4.4v4.398h-4.4v-4.398zm0 32.004v-23.817h4.4v23.818h-4.4z"/></g></svg>