<?xml version="1.0" encoding="utf-8"?>
<!-- Generator: Adobe Illustrator 18.1.1, SVG Export Plug-In . SVG Version: 6.00 Build 0)  -->
<svg version="1.1" id="Layer_1" xmlns="http://www.w3.org/2000/svg" xmlns:xlink="http://www.w3.org/1999/xlink" x="0px" y="0px"
	 viewBox="0 0 848 118" enable-background="new 0 0 848 118" xml:space="preserve">
<g>
	<g>
		<path fill="#D82C20" d="M114.5,47.9V36.6c0-9.4-7.7-17-17-17h-87v88.9h17V70.6h64.3c3.1,0,5.7,2.6,5.7,5.7v32.1h17V80.1
			c0-7.4-4.8-13.8-11.5-16.1C109.6,61.7,114.5,55.4,114.5,47.9z M27.5,34.7h64.3c3.1,0,5.7,2.6,5.7,5.7v11.3c0,3.1-2.6,5.7-5.7,5.7
			H27.5V34.7z"/>
	</g>
	<g>
		<path fill="#D82C20" d="M203.2,32.8h-62.4c-9.4,0-17,7.7-17,17v41.6c0,9.4,7.7,17,17,17h75.6V93.3h-70c-2.5,0-4.5-1.6-5.3-3.8
			c-0.2-0.6-0.4-1.2-0.4-1.9v-9.5h62.4c6.4,0,12.1-3.6,15-9c1.3-2.4,2-5.1,2-8.1V49.8C220.3,40.5,212.6,32.8,203.2,32.8z
			 M141.2,51.7c0.8-2.2,2.9-3.8,5.3-3.8h51.1c3.1,0,5.7,2.6,5.7,5.7v3.8c0,3.1-2.6,5.7-5.7,5.7h-45.4h-5.7h-5.7v-5.7v-3.8
			C140.8,52.9,141,52.3,141.2,51.7z"/>
	</g>
	<g>
		<path fill="#D82C20" d="M243.3,108.4h62.4c9.4,0,17-7.7,17-17v-3.8V49.8c0-9.4-7.7-17-17-17h-75.6v15.1h70c2.5,0,4.5,1.6,5.3,3.8
			c0.2,0.6,0.4,1.2,0.4,1.9v9.5h-62.4c-6.4,0-12.1,3.6-15,9c-1.3,2.4-2,5.1-2,8.1v11.3C226.3,100.8,234,108.4,243.3,108.4z
			 M305.4,89.5c-0.8,2.2-2.9,3.8-5.3,3.8H249c-3.1,0-5.7-2.6-5.7-5.7v-3.8c0-3.1,2.6-5.7,5.7-5.7h45.4h5.7h5.7v5.7v3.8
			C305.7,88.3,305.6,88.9,305.4,89.5z"/>
	</g>
	<path fill="#D82C20" d="M445.6,47.9H508V32.8h-62.4V12h-15.1v79.4c0,8.7,6.7,16,15.1,16.9v0.1H508V93.3h-56.7
		c-3.1,0-5.7-2.6-5.7-5.7V47.9z"/>
	<g>
		<path fill="#D82C20" d="M592.1,32.8h-58.6c-9.4,0-17,7.7-17,17v41.6c0,9.4,7.7,17,17,17h58.6c9.4,0,17-7.7,17-17V49.8
			C609.1,40.5,601.4,32.8,592.1,32.8z M592.1,87.6c0,3.1-2.6,5.7-5.7,5.7h-47.3c-3.1,0-5.7-2.6-5.7-5.7v-34c0-3.1,2.6-5.7,5.7-5.7
			h47.3c3.1,0,5.7,2.6,5.7,5.7V87.6z"/>
	</g>
	<path fill="#D82C20" d="M636.7,32.8c-9.4,0-17,7.7-17,17v58.6h17V53.6c0-3.1,2.6-5.7,5.7-5.7h54.8v-15v-0.1H636.7z"/>
	<path fill="#D82C20" d="M350.2,32.8c-9.4,0-17,7.7-17,17v41.6c0,1.3,0.2,2.6,0.4,3.8c0.4,1.8,1.1,3.5,2.1,5.1
		c0.1,0.1,0.1,0.2,0.2,0.3c0.2,0.3,0.4,0.6,0.6,0.9c0.1,0.1,0.2,0.2,0.3,0.3c0.2,0.3,0.4,0.5,0.7,0.8c0.1,0.1,0.2,0.2,0.3,0.4
		c0.2,0.2,0.5,0.5,0.7,0.7c0.1,0.1,0.3,0.2,0.4,0.3c0.2,0.2,0.5,0.4,0.7,0.6c0.1,0.1,0.3,0.2,0.4,0.3c0.4,0.3,0.9,0.6,1.3,0.9
		c0.2,0.1,0.5,0.3,0.7,0.4c0.2,0.1,0.4,0.2,0.6,0.3c0.3,0.1,0.5,0.3,0.8,0.4c0.2,0.1,0.4,0.2,0.6,0.3c0.3,0.1,0.6,0.2,0.8,0.3
		c0.2,0.1,0.4,0.1,0.6,0.2c0.3,0.1,0.6,0.2,0.9,0.2c0.2,0,0.4,0.1,0.6,0.1c0.3,0.1,0.7,0.1,1,0.2c0.2,0,0.4,0.1,0.5,0.1
		c0.5,0.1,1.1,0.1,1.6,0.1h70V93.3h-64.3c-3.1,0-5.7-2.6-5.7-5.7v-34c0-3.1,2.6-5.7,5.7-5.7h64.3V32.8H350.2z"/>
</g>
<g>
	<path fill="#5C6F7C" d="M710.1,57.1c3.7,0,7.1,0.7,10.1,2.1c3,1.4,5.5,3.3,7.6,5.7c2.1,2.4,3.6,5.2,4.7,8.4
		c1.1,3.2,1.7,6.6,1.7,10.1c0,3.6-0.6,7-1.7,10.2c-1.1,3.2-2.7,6-4.7,8.4c-2.1,2.4-4.6,4.3-7.6,5.7c-3,1.4-6.3,2.1-10.1,2.1
		c-3.7,0-7.1-0.7-10.1-2.1c-3-1.4-5.5-3.3-7.6-5.7c-2.1-2.4-3.6-5.2-4.7-8.4c-1.1-3.2-1.7-6.6-1.7-10.2c0-3.6,0.5-6.9,1.7-10.1
		c1.1-3.2,2.7-6,4.7-8.4c2.1-2.4,4.6-4.3,7.6-5.7C703,57.8,706.4,57.1,710.1,57.1z M710.1,64.2c-2.7,0-5,0.5-6.9,1.6
		c-1.9,1.1-3.5,2.5-4.7,4.3c-1.2,1.8-2.1,3.9-2.7,6.1c-0.6,2.3-0.9,4.6-0.9,7s0.3,4.7,0.9,7c0.6,2.3,1.5,4.3,2.7,6.1
		c1.2,1.8,2.8,3.2,4.7,4.3c1.9,1.1,4.3,1.6,6.9,1.6s5-0.5,6.9-1.6c1.9-1.1,3.5-2.5,4.7-4.3c1.2-1.8,2.1-3.9,2.7-6.1
		c0.6-2.3,0.9-4.6,0.9-7s-0.3-4.7-0.9-7c-0.6-2.3-1.5-4.3-2.7-6.1c-1.2-1.8-2.8-3.2-4.7-4.3C715.1,64.8,712.8,64.2,710.1,64.2z"/>
	<path fill="#5C6F7C" d="M741.8,58.3h9.3l22.9,37h0.1v-37h8.4v50.2h-9.3l-22.8-36.9h-0.2v36.9h-8.4V58.3z"/>
	<path fill="#5C6F7C" d="M792.9,58.3H829v7.6h-27.3V79H827v7.2h-25.3v14.7h27.8v7.6h-36.6V58.3z"/>
</g>
</svg>
