<svg xmlns="http://www.w3.org/2000/svg" width="511.78" height="384.761" viewBox="-62.281 -61.38 511.78 384.761" enable-background="new -62.281 -61.38 511.78 384.761"><path fill="#c69" d="M-17.5 323.38c-.456-.2-.906-.566-1.37-.584-19.29-.762-27.84-20.604-27.092-36.934.846-18.42 9.915-32.488 23.2-44.31 16.68-14.838 35.59-26.323 55.43-36.37 4.784-2.424 4.914-3.01.552-6.18C16.506 186.86-.485 175.087-16.993 162.67c-14.03-10.555-26.5-22.702-36.046-37.73-11.503-18.105-11.96-36.456-3.08-55.63 8.322-17.97 20.135-33.266 34.544-46.69 41.423-38.596 90.583-63.072 144.697-77.8 28.687-7.81 57.958-8.512 86.966-.56 14.887 4.08 28.535 10.757 38.465 22.955 13.79 16.94 14.595 36.438 8.692 56.373-9.262 31.292-29.61 54.112-57.24 70.437-22.31 13.18-46.945 19.36-72.684 21.63-15.98 1.408-31.668.805-46.644-5.418-8.405-3.492-15.73-8.7-21.135-16.253-1.763-2.463-3.158-5.116-3.858-8.067-.435-1.833-.54-3.796 1.394-4.896 1.862-1.058 3.17.345 4.318 1.525C74.766 96.288 91.84 99.35 109.746 98.02c31.098-2.313 59.543-12.48 84.476-31.583 13.67-10.472 25.017-22.948 32.497-38.658 3.12-6.556 4.88-13.49 5.478-20.67 1.073-12.906-6-23.958-18.833-29.473-15.7-6.745-32.23-8.187-49.012-6.615C107.39-23.643 59.235 2.18 14.736 36.147 3.143 44.997-6.554 55.805-14.1 68.387c-14.794 24.673-11.91 49.12 8.084 69.87 13.25 13.755 29.088 24.385 43.755 36.428 5.28 4.336 10.668 8.563 15.28 13.627 2.366 2.598 4.55 3.24 7.818 1.416 14.692-8.206 29.487-16.228 44.26-24.288 1.972-1.077 3.223-2.808 4.633-4.46 8.277-9.7 17.287-18.536 29.13-23.892 1.818-.822 3.66-1.632 5.562-2.226 15.234-4.764 24.935 2.284 25.245 18.292.013.667.01 1.334.017 2 .023 2.662-.814 5.78.292 7.867 1.346 2.535 4.358-.153 6.744.155 7.132.92 10.418 5.095 8.697 12.018-4.174 16.81-9.36 33.375-12.256 50.498-.638 3.772-.864 7.534-.05 11.988 3.64-3.108 5.004-7.057 6.712-10.6 13.745-28.524 26.306-57.587 38.99-86.59 2.55-5.83 4.33-11.9 5.772-18.07.81-3.472 2.796-5.462 6.214-6.377 6.36-1.7 12.813-2.39 19.308-1.416 6.654.997 8.39 4 6.022 10.482-4.32 11.835-5.902 23.84-3.56 36.334.94 5.004 3.01 9.5 5.107 14.03 1.187 2.564 2.427 2.397 3.716.05 11.522-20.967 25.747-40.678 30.84-64.658 1.47-6.925 5.214-10.37 12.042-11.17 4.994-.587 9.998-.81 14.957-.236 6.52.755 8.376 3.76 6.13 9.937-4.235 11.647-6.02 23.415-3.91 35.817 1.412 8.31 5.83 15.17 9.258 22.536 1.098 2.357 2.87 1.807 4.637.992 11.65-5.373 23.95-8.344 36.695-8.92 28.335-1.282 53.184 5.803 70.246 30.604 3.56 5.177 4.974 11.235 7.214 16.957v15c-3.502 10.74-9.563 19.39-20.16 24.167-2.587 1.166-6.086 3.765-8.005.354-1.973-3.503 2.552-4.35 4.57-5.845 13.37-9.89 16.132-24.015 7.508-38.258-4.283-7.075-10.127-12.48-17.404-16.057-24.11-11.853-49.02-12.117-74.392-4.562-3.418 1.018-3.307 2.86-2.39 5.667 2.895 8.857 4.245 17.71.505 26.822-7.02 17.106-32.46 30.444-45.692 31.13-7.062.364-12.154-4.693-12.596-12.076-.407-6.85 1.672-13.18 4.496-19.272 4.994-10.774 12.686-19.52 21.367-27.41 2.825-2.567 3.29-4.843 1.504-8.245-4.82-9.197-8.06-18.987-10.163-29.164-.27-1.32.05-3.087-2.03-3.897-.728 1.267-1.484 2.517-2.177 3.804-7.09 13.218-14.215 26.434-22.865 38.704-3.168 4.494-3.842 8.26-1.872 13.685 7.968 21.958 1.95 39.357-17.14 50.74-10.615 6.328-22.118 10.03-34.654 9.8-4.345-.08-8.503-.974-10.686-5.16-2.184-4.194-.594-8.1 1.988-11.642 1.668-2.288 3.39-4.537 5.146-6.758 8.57-10.844 17.994-20.984 26.215-32.13 2.558-3.464 2.725-6.31.635-9.952-5.686-9.912-9.207-20.658-11.613-31.798-.296-1.37.06-3.057-1.746-4.17-.59 1.238-1.22 2.386-1.7 3.594-9.41 23.72-20.258 46.78-32.36 69.23-5.282 9.798-9.846 20.106-17.51 28.433-4.537 4.932-9.673 9.23-16.995 6.877-6.827-2.193-8.483-8.365-9.808-14.54-1.502-6.994-1.168-14.042-.54-21.146-3.907 7.792-7.372 15.695-11.184 23.428-2.794 5.666-5.74 11.318-10.577 15.64-7.333 6.552-19.617 5.93-25.522-1.786-10.358-13.537-14.062-29.294-13.617-46.016.305-11.45 2.49-22.71 6.365-35.017-9.26 5.36-17.278 10.038-25.34 14.644-2.178 1.242-1.837 2.87-1.074 4.692 3.262 7.79 4.574 15.934 4.84 24.352 1.015 32.05-10.913 57.65-37.323 76.312-10.307 7.28-22.014 10.834-34.005 13.826h-19zm69.918-92.1c.303-4.288-.582-9.204-1.528-14.11-.415-2.154-1.18-3.38-3.678-1.87-17.414 10.524-34.77 21.196-48.46 36.552-7.938 8.906-13.125 19.25-12.22 31.748.44 6.09 3.942 9.832 9.985 10.508 2.66.297 5.295.035 7.932-.545 26.656-5.858 47.953-33.15 47.968-62.282zm62.203-7.208c-.153 3.688.1 7.334.893 10.935.807 3.66.615 8.815 4.913 9.45 3.95.584 5.443-4.26 7.13-7.385 6.112-11.317 10.243-23.492 14.87-35.44 5.054-13.044 9.728-26.236 12.593-39.976.46-2.213 1.202-4.858-1.1-6.475-2.114-1.484-4.49-.637-6.655.378-4.78 2.24-8.75 5.597-11.838 9.774-12.894 17.446-20.67 36.76-20.806 58.74zm204.77-21.353c0-1.494.09-2.994-.02-4.48-.2-2.732-1.224-3.892-3.63-1.575-8.243 7.927-13.596 17.52-16.375 28.575-.236.942-.674 2.056.27 2.79 1.112.868 2.19.022 3.24-.403 10.416-4.24 16.563-13.432 16.516-24.908zm-69.25 14.99c-7.697 10.217-15.46 18.68-23.677 27.912 11.666-2.36 23.61-16.18 23.677-27.913z"/></svg>