<svg xmlns="http://www.w3.org/2000/svg" width="339.371" height="295.15" viewBox="0 0 339.371 295.15"><g fill-rule="evenodd" clip-rule="evenodd"><path fill="#070606" d="M104.12 207.615c-13.21-11.146-21.995-25.302-27.925-41.345-1.492-4.035-2.534-8.236-3.782-12.36 8.618-.16 16.81-1.925 24.27-6.44 4.026 5.52 8.743 10.23 14.828 13.56 7.718 4.226 16.093 5.682 24.675 6.47.305 3.8.858 7.6.84 11.397-.017 3.12.976 5.437 3.414 7.282 10.432 7.896 22.344 10.356 35.136 9.62l.046.036c12.96.42 24.504-3.685 35.152-10.832 2.016-1.354 2.926-3.065 3.15-5.33 6.12 2.326 8.874 7.75 11.836 12.956.095.166-.512.73-.79 1.11-2.183.664-5.173-1.498-6.554 1.57-.464 1.03.42 3.104-1.32 3.147-2.028.05-1.554-1.747-1.633-3.304-.116-2.306-2.28-1.23-3.565-1.34-1.045-.09-2.686-.624-3.06.793-.538 2.038 1.643 1.52 2.605 2.17 3.98 2.673 4.664 6.067 1.836 10.255 2.66.46 5.133.954 8.278-.744-5.612-2.443-2.796-4.857-.94-7.717 1.28-1.973 4.167-1.486 4.846-3.888 4.002 1.17 8.25 7.588 8.687 13.128-5.16 4.655-10.685 8.793-16.92 11.92-1.064-.02-2.127-.045-3.19-.068-.47-2.086-2.268-1.588-3.588-1.68-6.704-.464-13.416-.805-20.126-1.19-1.457-3.15-4.147-4-7.34-3.983-4.96.023-9.923.074-14.882-.02-3.417-.062-6.124 1.026-7.88 4.07-6.752.394-13.568.354-20.233 1.336-4.237.624-8.995-.857-12.732 2.45-.926.05-1.77.255-2.218 1.194-5.853-2.51-10.96-6.208-15.99-10.03l.05-3.02c3.258-9.73 6.05-19.628 10.815-28.856-7.756 7.38-11.254 16.828-13.814 26.75-.798.018-1.534.167-1.98.93zM116.637 47.666c9.6-5.956 10.124-6.078 7.494-17.334-2.14-9.168 1.588-15.028 8.395-19.91 10.12-7.26 21.853-9.14 33.905-10.06 14.278-1.087 28.182.088 41.428 5.99 3.503 1.56 6.726 3.58 9.835 5.82 7.07 5.086 11.736 10.865 8.495 20.5-1.674 4.973-1.91 10.43-2.796 15.668l-.29.33c-10 .004-20 .088-30-.035-3.086-.038-4.546.287-3.554 4.062 1.176 4.477-.413 8.028-3.478 10.008.68-2.193 1.693-4.346 1.973-6.59.804-6.463-3.3-12.06-9.697-13.662-6.704-1.68-12.14 1.562-15.404 9.19l-1.555-.02c.886-2.495-.148-3.022-2.562-2.99-10.324.13-20.65.075-30.978.088-4.133-.865-6.173 3.304-9.65 4.013l-1.56-5.067z"/><path fill="#F2CD8B" d="M116.637 47.666c.52 1.69 1.04 3.38 1.557 5.067l.75 4.062c-7.106 4.71-8.046 4.498-13.05-3.36-.893-1.4-1.652-1.464-2.64-.317-6.27 7.264-11.47 15.6-20.714 19.98 1.176.46 2.08.648 2.754.337 5.374-2.48 9.786-2.02 12.616 3.823.472.974 1.28 1.485 2.394 1.438.926.992 1.047 3.708 3.433 1.05 2.174-2.424 4.907-4.368 8.188-5.26.25.78.43 1.595.767 2.336 4.118 9.065 1.33 13.263-8.907 13.266-1.442 0-1.578.813-1.662 1.85.068.3.02.578-.138.838l-.885.99.115-.035c-4.22 2.23-8.57 3.638-13.485 3.026-3.492-.434-6.417-2.35-9.738-3.157-.108-2.304-.198-4.607-.33-6.91-.29-5.147-2.92-8.04-7.756-10.21-11.177-5.017-17.14-17.365-13.893-27.117 1.176-3.53 3.077-6.213 7.137-6.59-.006 2.142-.31 4.33.032 6.416 1.45 8.844 3.042 17.685 12.86 21.57.39.235.773.48 1.175.688.025.014.188-.235.286-.36l-1.3-.514c-.534-4.203-4.37-7.255-4.096-11.74 1.78-14.02 6.862-26.247 19.08-34.446 3.62-2.43 7.64-3.857 12.16-3.74 3.124.08 5.463 1.053 6.647 4.097-4.798 4.214-9.65 8.366-14.382 12.653-8.925 8.09-14.303 17.65-11.974 30.3.855-8.68 3.91-16.29 10.57-22.146.536-.07.935-.277.892-.915l-.048.05c.684-.018 1.062-.337 1.045-1.05l-.043.042c.954-.147 1.98-.116 2.85-.47 9.486-3.85 10.213-3.683 17.733 4.456z"/><path fill="#0B0909" d="M224.97 193.74c.278-.38.885-.943.79-1.11-2.962-5.206-5.716-10.63-11.835-12.955.182-3.985.363-7.972.543-11.957 4.88 2.25 9.48 4.94 13.418 8.654.085.757.318 1.37 1.255 1.316l-.043-.044c-.05.736-.05 1.42 1.028 1.037l-.02-.02c-.92 1.503.317 2.507.947 3.543 2.77 4.56 4.834 9.432 6.747 14.387.437 1.134.354 3.286 2.022 2.842 1.912-.51 1.952-2.575 1.184-4.203-1.977-4.19-4.103-8.306-6.168-12.45 4.273.65 6.21 4.97 10.016 6.56 13.45-18.55 20.07-39.1 18.637-61.848-1.948-30.945-15.597-55.58-41.148-73.42l.76-5.4.29-.33c24.962 16.252 39.87 39.32 44.363 68.517 4.976 32.34-4.257 60.8-26.402 84.978-2.12 2.314-4.336 4.546-7.202 5.977-.436-5.54-4.684-11.96-8.686-13.128l-.494-.947z"/><path fill="#131313" d="M206.073 268.644c-5.454 8.4-10.09 15.584-14.77 22.736-3.068 4.692-5.25 4.648-8.353-.142-4.57-7.054-9.113-14.125-14.645-20.922 0 5.393.06 10.787-.022 16.18-.05 3.16 2.24 2.33 3.84 2.264 2.282-.098 3.24.503 3.26 3.02.02 2.76-1.42 2.833-3.453 2.798-4.5-.077-9-.108-13.497.012-2.248.06-3.33-.475-3.273-3.023.05-2.268.97-3.102 3-2.727 4.102.758 4.59-1.358 4.444-4.773-.245-5.822-.18-11.665-.02-17.493.077-2.723-.604-4.077-3.595-3.722-2 .237-3.937.42-3.845-2.842.1-3.51 2.478-2.194 4.188-2.54 6.47-1.314 10.243 1.537 13.374 7.17 4.256 7.657 9.46 14.79 14.607 22.688 5.896-9.25 11.47-18.01 17.063-26.757 1.61-2.518 11.71-4.565 13.926-2.79 1.25 1 .657 2.487.585 3.734-.102 1.735-1.65 1.484-2.682 1.328-3.655-.556-4.457 1.086-4.31 4.457.26 5.986.216 12 .01 17.99-.1 2.824.728 3.977 3.58 3.537 2.418-.372 3.632.36 3.562 3.194-.074 3.01-1.965 2.517-3.732 2.525-4.333.022-8.666-.036-12.998.026-1.98.03-3.526.07-3.5-2.744.022-2.466.894-3.43 3.206-2.994 3.893.734 4.263-1.337 4.11-4.49-.232-4.735-.06-9.49-.06-15.698zM74.302 294.554c-5.662 0-11.324-.035-16.985.02-1.942.02-3.573.176-3.496-2.685.063-2.298.602-3.488 3.085-3.078 3.28.542 4.214-.862 4.065-4.1-.268-5.815-.18-11.655-.032-17.48.073-2.896-.264-4.983-3.923-4.35-2.274.394-3.242-.348-3.21-2.915.03-2.54 1.306-2.518 3.134-2.51 11.322.043 22.646.108 33.968-.042 2.69-.036 3.506.802 3.26 3.376-.205 2.147-.01 4.327-.053 6.49-.03 1.556.536 3.32-2.256 3.353-2.53.03-3.334-.954-2.95-3.203.665-3.885-1.088-4.84-4.713-4.614-4.81.298-9.66.236-14.48.025-4.056-.176-2.956 2.645-3.02 4.727-.065 2.182-.83 4.83 3.126 4.607 4.315-.244 8.658.03 12.984-.087 2.192-.06 2.847.8 2.915 2.918.075 2.323-.923 2.792-2.963 2.737-4.16-.11-8.334.117-12.487-.086-2.707-.132-4.067.528-3.64 3.5.186 1.306.205 2.69-.004 3.987-.534 3.323 1.1 3.85 3.965 3.727 4.82-.207 9.67-.273 14.48.02 3.307.2 4.444-.86 4.05-4.112-.2-1.658-.722-3.69 2.39-3.735 2.903-.04 3.135 1.34 3.194 3.672.25 9.84.315 9.84-9.418 9.84h-10.99z"/><path fill="#101010" d="M298.965 267.294c0 6.415.084 12.832-.036 19.245-.062 3.252 2.243 2.308 3.784 2.22 2.498-.144 3.52.477 3.498 3.252-.025 3.05-1.88 2.525-3.65 2.53-4.494.01-8.99-.06-13.485.03-1.932.04-3.096-.192-3.07-2.623.025-2.28.518-3.58 3.035-3.12 3.626.666 4.44-.95 4.277-4.353-.287-5.98-.21-11.988-.024-17.977.086-2.767-.65-4-3.582-3.66-1.975.23-3.876.51-3.746-2.842.138-3.55 2.44-2.197 4.126-2.518 6.214-1.182 10.434 1.595 14.61 6.047 6.707 7.15 14.14 13.62 21.452 20.556 0-6.288.152-13.1-.086-19.895-.08-2.25-2.393-1.263-3.665-1.243-2.244.034-3.29-.464-3.245-3.034.047-2.64 1.59-2.427 3.285-2.424 4.662.01 9.325.085 13.985-.034 2.06-.052 2.955.42 2.94 2.73-.013 2.27-.874 3.077-2.923 2.675-4.188-.82-4.48 1.47-4.39 4.794.198 7.488.126 14.985.005 22.477-.023 1.45 1.15 3.68-1.088 4.274-2.247.597-4.386.163-6.284-1.85-7.194-7.62-14.62-15.024-21.89-22.577-.987-1.026-1.577-2.437-2.35-3.668l-1.485.99zM266 288.535c-.708-4.36-2.72-6.556-7.378-5.908-2.94.408-6.026.4-8.97 0-4.586-.62-6.73 1.436-7.436 5.643 1.47 1.87 5.875-1.628 5.782 3.24-.037 1.96-.313 3.133-2.682 3.07-4.825-.125-9.656-.11-14.482 0-2.05.045-2.96-.468-3-2.742-.04-2.45.85-3.418 3.182-3 3.172.566 4.737-1.01 6.062-3.72 3.55-7.254 7.363-14.378 11.428-22.24-2.433 0-4.187-.115-5.92.03-1.97.162-2.565-.584-2.566-2.53 0-2.017.36-3.245 2.702-2.898.488.072 1.018.102 1.493-.004 9.715-2.153 15.25 2.038 18.543 11.13 2.07 5.723 5.67 10.877 8.32 16.413 1.29 2.692 2.764 4.383 5.986 3.82 2.18-.38 3.3.292 3.31 2.88.013 2.694-1.3 2.9-3.394 2.854-4.326-.098-8.656-.06-12.984-.017-2.08.02-3.86.233-3.852-2.93.01-3.284 1.998-2.782 3.964-2.82.627-.012 1.25-.175 1.89-.272zm-17.202-11.663c.837 1.433 5.735.45 8.803.633 2.363.14 3.025-.527 1.737-2.758-1.703-2.95-3.223-6.006-5.2-9.732"/><path fill="#131313" d="M125.113 295.15c-3.197-.18-6.318-.61-9.332-1.625-7.755-2.614-12.472-9.155-12.548-17.336-.076-8.257 4.407-14.727 12.23-17.526 6.79-2.43 13.71-2.495 20.587-.564 8.584 2.41 13.416 8.764 13.608 17.464.198 8.963-4.534 15.383-13.277 18.214-3.698 1.198-7.506 1.026-11.267 1.372zm1.21-32.6c-2.8-.133-6.126.06-9.243 1.44-3.687 1.63-6.268 4.192-7.167 8.34-1.753 8.077 1.57 14.16 9.098 16.324 10.487 3.015 20.99-.223 23.617-7.292.23-.618.374-1.273.507-1.922 2.175-10.626-3.82-16.853-16.81-16.89z"/><path fill="#101010" d="M23.537 273.344c1.79-.564 2.433-2.037 3.375-3.144 1.795-2.11 3.437-4.35 5.73-7.285-3.216.212-5.36-.004-4.795-3.454.573-3.496 3.077-1.78 4.636-1.88 4.145-.266 8.318-.044 12.48-.11 1.903-.03 3.095.222 3.073 2.648-.02 2.254-.89 3.13-2.934 2.73-4.07-.795-6.474 1.313-8.626 4.368-1.912 2.713-3.846 5.54-6.307 7.705-3.886 3.42-3.164 7.718-3.203 11.973-.027 2.948 2.226 1.828 3.604 1.877 2.237.08 4.288-.288 4.155 3.18-.13 3.38-2.354 2.555-4.182 2.575-4.994.055-9.99-.04-14.98.04-2.176.033-2.35-1.202-2.346-2.88.005-1.667.167-2.815 2.337-2.93 1.822-.097 4.87 1.217 5.26-.957.548-3.083 1.43-6.772-.67-9.64-3.535-4.824-7.468-9.354-11.215-14.023-1.683-2.096-4.003-1.203-6.04-1.192-2.1.013-2.877-.516-2.89-2.76-.01-2.293.842-2.794 2.918-2.732 4.324.13 8.66-.085 12.98.104 1.583.07 4.052-1.43 4.323 2.227.25 3.387-1.8 3.18-4.986 3.218 3.12 3.89 5.73 7.14 8.303 10.346z"/><path fill="#0B0909" d="M125.04 221.843c.448-.94 1.292-1.144 2.218-1.195 2.34 1.774 4.994 1.787 7.724 1.374-.02 2.823 2.314 3.72 4.225 4.075 7.02 1.308 13.798 4.18 21.144 3.498 5.937 2.104 7.074 1.693 7.325-2.636.41-7.096.41-7.096 7.658-7.096.993 0 2.005.124 2.976-.022 3.837-.576 5.503.812 4.997 4.85-.22 1.748-.88 4.245 2.56 4.006 2.786-.193 4.89-.766 4.455-4.307-.18-1.452.105-2.963.18-4.447 7.85.302 15.72 2.217 23.538-.278l3.19.07c-30.358 17.012-61.096 17.35-92.19 2.108z"/><path fill="#DA012A" d="M70.917 123.645c.478-9.062 2.313-17.815 5.96-26.156 4.203 1.93 8.674 3.32 12.413 6.185-.888 5.882-1.023 11.793-.714 17.722-5.606 2.96-11.59 2.938-17.66 2.248z"/><path fill="#0B0909" d="M70.917 123.645c6.07.69 12.054.712 17.66-2.248l2.42 13.772c-6.64 2.75-13.49 4.484-20.736 4.354-.39-5.318-.593-10.628.657-15.88z"/><path fill="#E7A850" d="M94.206 45.55c-6.66 5.855-9.714 13.466-10.57 22.147-2.328-12.65 3.05-22.21 11.975-30.3 4.73-4.288 9.585-8.44 14.383-12.654 1.706 5.236-.007 8.862-4.86 11.483-3.45 1.865-6.9 3.94-9.08 7.45l.043-.043-1.045 1.05.05-.05c-.3.306-.597.612-.894.917zM72.106 58.833c-.274 4.485 3.562 7.537 4.096 11.74l-.16.187c-9.818-3.887-11.41-12.728-12.86-21.572-.34-2.085-.038-4.274-.032-6.416 3.71-.63 5.167 1.097 4.918 4.66-.306 4.38.195 8.485 4.038 11.4zM89.29 103.672c-3.74-2.862-8.21-4.254-12.414-6.184.173-1.354.132-2.77 1.116-3.89 3.32.806 6.247 2.723 9.738 3.156 4.917.61 9.265-.797 13.484-3.025-.356 7.328-2.606 9.205-11.924 9.942z"/><path fill="#DA012A" d="M96.684 147.47c-7.462 4.516-15.654 6.28-24.27 6.44l-1.043-4.81c8.084-.31 15.998-1.35 23.23-5.354l2.084 3.725z"/><path fill="#0B0909" d="M94.6 143.747c-7.232 4.003-15.146 5.045-23.23 5.354l-.616-5.194c7.605-.067 14.904-1.538 21.815-4.776.676 1.54 1.353 3.078 2.03 4.617z"/><path fill="#DA012A" d="M92.568 139.13c-6.91 3.238-14.21 4.71-21.815 4.776-.83-1.386-.687-2.88-.492-4.382 7.246.13 14.098-1.605 20.738-4.353.523 1.322 1.047 2.64 1.57 3.96z"/><path fill="#0B0909" d="M109.1 208.792c-.018 1.007-.034 2.015-.05 3.02-1.645-1.398-3.288-2.798-4.932-4.197.447-.765 1.183-.913 1.98-.93l3 2.107z"/><path fill="#DA012A" d="M136.185 167.5l.16-3.635c5.932 5.21 12.54 9.127 20.326 10.924 20.844 4.81 40.093 1.565 57.497-11.206.1 1.378.2 2.756.302 4.134l-.545 11.957c-.226 2.265-1.136 3.977-3.15 5.33-10.65 7.147-22.193 11.252-35.152 10.83 1.41-5.842 1.967-11.685-.328-18.89-1.597 7.185-2.16 13.015.28 18.855-12.79.736-24.703-1.724-35.136-9.62-2.44-1.847-3.432-4.163-3.416-7.283.02-3.797-.534-7.598-.84-11.398zm46.49 21.485c1.062.236 1.654-1.23 1.66-2.82.004-1.48-.99-2.48-2.595-2.415-1.775.072-2.75 1.06-2.702 2.88.043 1.64.997 2.353 3.637 2.355z"/><path fill="#F2A700" d="M190.5 219.942c-.073 1.484-.357 2.995-.18 4.448.436 3.54-1.668 4.113-4.454 4.307-3.44.24-2.778-2.258-2.56-4.006.506-4.036-1.16-5.425-4.998-4.85-.97.147-1.982.023-2.976.023-7.248 0-7.248 0-7.658 7.095-.25 4.33-1.39 4.74-7.324 2.636l-.344-9.68.217-3.053c1.756-3.043 4.463-4.132 7.88-4.068 4.96.093 9.92.042 14.882.018 3.192-.016 5.883.833 7.34 3.983l.175 3.15z"/><path fill="#C20125" d="M160.224 216.862l-.218 3.052-25.024 2.107c-2.73.414-5.384.4-7.724-1.373 3.737-3.307 8.495-1.825 12.733-2.45 6.666-.98 13.482-.94 20.234-1.335zM109.1 208.792l-3-2.105c2.56-9.923 6.058-19.37 13.814-26.75-4.765 9.227-7.557 19.126-10.815 28.855zM224.97 193.74l.494.944c-.68 2.4-3.566 1.915-4.846 3.887-1.855 2.86-4.672 5.274.94 7.718-3.146 1.698-5.617 1.203-8.28.745 2.83-4.188 2.147-7.582-1.835-10.256-.963-.647-3.144-.13-2.605-2.17.374-1.416 2.015-.882 3.06-.793 1.286.11 3.45-.965 3.565 1.34.08 1.558-.396 3.355 1.633 3.305 1.74-.044.856-2.117 1.32-3.148 1.38-3.07 4.37-.907 6.554-1.572zM190.5 219.942c-.06-1.05-.117-2.1-.176-3.148 6.71.386 13.423.727 20.127 1.19 1.32.092 3.12-.406 3.59 1.68-7.818 2.495-15.688.58-23.54.278z"/><path fill="#2C040C" d="M175.575 195.8c-2.44-5.84-1.878-11.67-.28-18.854 2.294 7.205 1.737 13.048.327 18.89l-.047-.035z"/><path fill="#DA012A" d="M223.1 48.67c-.252 1.8-.505 3.602-.76 5.402l-2.265 13.45c-11.23.055-22.463.13-33.694.125-1.097 0-3.456.912-2.23-1.957l-.054.043c.678-.02 1.06-.342 1.053-1.05l-.036.046c.965-.384 2.028-.72 1.025-2.074l-.07.05c3.065-1.98 4.654-5.532 3.48-10.01-.993-3.773.467-4.1 3.554-4.06 9.997.123 19.998.04 29.997.035zM127.846 48.722c10.327-.013 20.654.043 30.978-.09 2.414-.03 3.448.497 2.562 2.992-.868 6.05.047 11.41 5.773 14.906.004.274.123.66-.013.798-.2.205-.58.326-.883.325-11.8-.034-23.598-.086-35.397-.135l-3.02-18.796z"/><path fill="#C20125" d="M162.94 51.643c3.266-7.627 8.7-10.87 15.405-9.19 6.398 1.604 10.5 7.2 9.697 13.664-.28 2.243-1.294 4.396-1.973 6.59-.002 0 .067-.05.067-.05-.886.422-1.71.875-1.025 2.073l.035-.045c-.98-.282-1.332.067-1.053 1.05l.053-.044c-5.316 1.147-10.64 3.586-15.932-.082-.297-1.005-2.092-1.436-1.12-2.925l1.755.276c4.835 3.528 9.253 3.572 13.378.13 4.077-3.4 4.854-8.256 2.186-13.687-.293-.388-.584-.775-.878-1.16-.313-.338-.626-.68-.938-1.02-5.016-4.173-8.456-4.34-13.613-.657-.34.33-.683.658-1.024.986-.467.546-.935 1.093-1.4 1.64-.342.668-.682 1.337-1.022 2.005-1.646 3.52-1.17 6.747 1.332 9.697l.23 1.792c-2.603.47-2.772-1.81-3.465-3.263-1.17-2.46-.408-5.186-.694-7.78z"/><path fill="#2C040C" d="M167.098 62.683c-.973 1.49.822 1.92 1.12 2.925l-1.058.923c-5.727-3.495-6.642-8.854-5.773-14.905l1.555.02c.285 2.594-.477 5.32.694 7.78.692 1.453.862 3.73 3.465 3.262l-.002-.004z"/><path fill="#E7A850" d="M118.946 56.795c.66 4.038-.277 7.634-2.97 10.745-.678.31-1.358.616-2.04.924-4.055.834-7.433-.14-9.846-3.69-.635-1.708-.53-3.75-2.642-5.818-.947 4.78-8.654 6.51-3.693 12.632l2.55 7.108c-1.114.048-1.922-.464-2.395-1.438-2.83-5.842-7.242-6.303-12.616-3.823-.674.312-1.578.123-2.754-.337 9.244-4.38 14.444-12.717 20.713-19.98.99-1.146 1.748-1.084 2.64.318 5.005 7.857 5.946 8.07 13.053 3.36zM115.952 92.87c-4.775 2.144-9.425 2.43-13.828-.934.083-1.036.22-1.85 1.662-1.85 10.236-.003 13.025-4.2 8.907-13.266-.337-.74-.515-1.556-.766-2.335 1.03-.943 2.37-.77 3.6-.988.988 3.603 2.645 5.508 7.083 5.48 3.114-.022 6.31-1.074 9.44-.09.018 1.607.034 3.215.05 4.822-.315 2.626.705 5.357-.614 7.907-1.57-.594-1.554-2.564-2.746-3.33-1.778-1.145-4.004-3.818-5.854-1.487-2.015 2.542-5.04 3.607-6.934 6.07zM76.202 70.573l1.3.513c-.098.126-.26.375-.286.36-.4-.21-.785-.452-1.174-.687l.16-.187zM101.986 92.774l-.885.99.886-.99z"/><path fill="#FDFDFD" d="M94.206 45.55l.893-.915c.042.637-.357.844-.894.915zM95.05 44.684l1.046-1.05c.017.714-.362 1.033-1.045 1.05z"/><path fill="#C20125" d="M230.105 178.66c2.772 0 2.766 3.194 4.734 4.118 2.063 4.146 4.19 8.263 6.166 12.45.77 1.628.73 3.693-1.184 4.203-1.668.445-1.586-1.707-2.023-2.84-1.914-4.956-3.98-9.83-6.748-14.388-.63-1.035-1.865-2.04-.947-3.542zM227.886 176.372c.65.22 1.246.487 1.255 1.316-.936.055-1.17-.56-1.254-1.316zM229.097 177.645c.733-.042 1.14.242 1.028 1.037-1.077.38-1.08-.3-1.028-1.037z"/><path fill="#070606" d="M134.98 222.02l25.025-2.106.345 9.68c-7.346.683-14.124-2.19-21.144-3.497-1.91-.356-4.243-1.252-4.225-4.076z"/><path fill="#501B09" d="M221.024 108.774c5.437 5.847 10.3 12.088 14.053 19.194 1.44 2.728.936 4.043-1.777 5.334-5.478 2.607-11.21 4.062-17.205 4.633-7.156.086-14.083-.71-20.503-4.34-5.1-2.884-9.094-7.004-13.266-10.958-.373-1.708-1.65-2.71-2.91-3.728l-1.393-3.33-2.686-6.49c-.832 2.438-1.55 4.544-2.27 6.648l-1.952 3.467-3.877 3.927c-8.157 10.588-19.067 15.215-32.26 14.898-6.257-.73-12.322-2.06-17.982-5.024-2.205-1.155-2.7-2.21-1.498-4.51 3.7-7.09 8.185-13.56 13.987-19.08l3.696-3.424c5.03-2.86 9.99-6.023 15.966-6.328 4.957-.252 9.934-.076 14.902-.09 3.24.795 6.52 1.64 9.15 3.75 1.707 1.368 3.074.99 4.436-.115 2.545-2.07 5.602-2.83 8.64-3.68 11.086-1.985 21.355.106 30.828 6.172l3.922 3.072z"/><path fill="#F2CD8B" d="M134.98 138.03c13.192.317 24.102-4.31 32.257-14.894 5.058.725 10.16 2.713 15.09-.5 4.17 3.955 8.165 8.075 13.265 10.96 6.42 3.63 13.347 4.425 20.503 4.34-.644 8.55-1.285 17.1-1.928 25.647-17.404 12.77-36.653 16.015-57.496 11.205-7.787-1.797-14.394-5.713-20.325-10.924l-1.366-25.833zm47.126-9.337c-4.68.01-9.356.02-14.035.027l-.33-.28.393.222c4.57 4.524 10.54 4.53 13.956.014.12-.04.256-.056.353-.126.06-.043.057-.17.08-.258-.138.134-.277.268-.417.4zm4.446 26.003c-8.31-.214-15.68.862-23.343-1.316 5.21 7.69 15.964 8.43 23.342 1.316z"/><path fill="#C8822B" d="M115.952 92.87c1.894-2.463 4.92-3.528 6.935-6.068 1.85-2.33 4.076.343 5.854 1.486 1.192.767 1.177 2.737 2.744 3.332-.007.613-.01 1.226-.016 1.838-2.84 7.352-4.186 8.078-13.216 7.13-1.762-2.276-2.18-4.952-2.3-7.718z"/><path fill="#E7A850" d="M118.252 100.588c9.03.948 10.376.222 13.213-7.13 3.23 3.814.832 8.4 1.716 12.535-1.233 1.143-2.467 2.284-3.695 3.423-4.216-2.34-9.58-3.223-11.233-8.828z"/><path fill="#FCFCFC" d="M182.675 188.985c-2.64-.002-3.594-.715-3.637-2.355-.047-1.82.927-2.808 2.702-2.88 1.604-.065 2.6.935 2.594 2.414-.005 1.592-.597 3.058-1.66 2.82z"/><path fill="#070606" d="M220.075 67.523h16.258c-1.435 10.65-1.66 10.868-11.398 11.296l-5.806.03-24.953-.02-4.135-.01-2.836.063c-.398 0-.798 0-1.196.002l-20.872-.038-2.11-.005-2.843.005c-1.383-.01-2.766-.02-4.15-.032l-23.983.072c-3.13-.984-6.327.068-9.44.09-4.44.027-6.096-1.878-7.084-5.48l-1.588-5.032c.68-.31 1.36-.617 2.04-.926 4.962-.008 9.926-.016 14.89-.022 11.8.05 23.6.1 35.397.135.303 0 .683-.12.883-.325.136-.138.017-.523.012-.798l1.057-.923c5.29 3.668 10.614 1.23 15.93.083-1.224 2.87 1.136 1.957 2.233 1.957 11.23.006 22.46-.07 33.692-.124zM185.113 64.73c-.684-1.2.14-1.652 1.025-2.074 1.004 1.356-.06 1.69-1.025 2.073zM184.096 65.733c-.28-.98.072-1.33 1.053-1.05.004.71-.377 1.03-1.054 1.05z"/><path fill="#2C040C" d="M184.416 49.4c2.667 5.434 1.89 10.29-2.187 13.69-4.126 3.44-8.544 3.397-13.38-.132l.76-.817c5.412 2.985 9.364-1.384 13.335-3.374 2.83-1.418 1.413-5.58.537-8.58.312-.26.623-.522.934-.785zM168.985 46.564c5.158-3.68 8.6-3.515 13.614.658-.26.256-.516.51-.772.766-3.93-2.604-7.967-3.174-12.165-.633-.225-.263-.45-.527-.678-.79zM166.87 60.894c-2.5-2.95-2.98-6.178-1.332-9.697l.894.74c-.568 2.88-.165 5.613 1.262 8.188-.276.256-.55.512-.825.77zM168.852 62.96c-.584-.094-1.17-.186-1.754-.277l.003.003c-.075-.598-.152-1.195-.23-1.792.274-.257.55-.513.82-.768.64.673 1.28 1.343 1.922 2.014-.254.272-.507.546-.76.82zM165.538 51.196l1.02-2.006c.28.245.56.49.84.733-.323.67-.645 1.342-.966 2.014l-.894-.74zM166.56 49.19l1.402-1.64.764.663-1.326 1.71c-.28-.243-.56-.487-.84-.733zM183.54 48.24c.29.387.582.774.875 1.162l-.93.783c-.23-.398-.466-.796-.7-1.193.252-.25.503-.502.754-.753zM182.6 47.223c.312.34.624.682.938 1.02-.25.248-.5.5-.75.75l-.96-1.004c.257-.257.514-.51.772-.767zM167.962 47.552c.342-.328.684-.656 1.024-.986l.675.787c-.313.284-.624.573-.935.86l-.763-.66z"/><path fill="#101010" d="M104.09 64.774l-6.334 6.812c-4.96-6.122 2.745-7.85 3.692-12.63 2.113 2.066 2.008 4.11 2.642 5.818z"/><path fill="#F2CD8B" d="M133.182 105.993c-.885-4.135 1.515-8.72-1.716-12.534.007-.614.012-1.227.02-1.84 1.32-2.55.3-5.282.615-7.91 4.664.32 9.433-.97 13.993.92 4.53-1.047 9.13-1.25 13.752-1.068 1.08.042 2.534-.528 3.11.853.633 1.51-.59 2.52-1.56 3.358-1.834 1.586-3.803 3.016-5.793 4.57 3.587 1.334 5.472-1.913 8.448-2.92v10.15c-4.97.016-9.946-.16-14.903.092-5.977.305-10.938 3.47-15.965 6.328z"/><path fill="#C8822B" d="M146.092 84.63c-4.56-1.89-9.33-.6-13.992-.92l-.05-4.82c7.996-.025 15.99-.05 23.985-.073-3.248 2.05-8.267 1.07-9.943 5.812z"/><path fill="#E7A850" d="M219.13 78.852c1.935-.012 3.87-.022 5.805-.032 2.718 2.273 6.553 3.43 7.49 7.488-2.082.85-4.33-1.955-6.348.29-3.988.363-6.016 2.634-5.976 6.55.035 3.305.526 6.495 4.965 6.586l.002-.017c.374.937 1.164.912 1.97.85 1.627 1.936 3.58-.77 5.264.368-2.06 5.057-6.36 6.887-11.275 7.84-1.307-1.023-2.614-2.048-3.922-3.07 2.126-7.202.167-14.772 1.99-22 .01-1.62.024-3.236.036-4.853z"/><path fill="#C8822B" d="M232.3 100.935c-1.683-1.14-3.636 1.567-5.263-.367l-1.97-.85-.002.016c-2.396-4.59-2.402-8.994 1.012-13.135 2.018-2.247 4.266.56 6.348-.292l.01.117c-.15.64.15 1.02.71 1.256 2.114 4.007 2.11 7.998-.08 11.975l-.786 1.217.02.063z"/><path fill="#E7A850" d="M233.146 87.68c-.56-.234-.86-.616-.712-1.255.24.417.475.837.712 1.256zM232.278 100.87l.786-1.216-.786 1.217z"/><path fill="#F2CD8B" d="M219.093 83.704c-1.823 7.23.136 14.798-1.99 22-9.473-6.066-19.742-8.158-30.827-6.172l.97-9.45c2.602.68 4.415 3.42 7.836 2.145-2.445-1.92-4.947-3.267-6.602-5.526-.553-.755-1.61-1.56-.822-2.545.392-.487 1.46-.522 2.236-.598 4.774-.464 9.46.477 14.177.95 4.95-1.372 10.005-.718 15.023-.803z"/><path fill="#A5601A" d="M204.07 84.51c-4.716-.476-9.402-1.416-14.177-.952-.777.075-1.845.11-2.236.598-.788.983.27 1.79.822 2.546 1.653 2.26 4.155 3.607 6.6 5.526-3.42 1.274-5.233-1.467-7.834-2.146l-.97 9.45c-3.04.85-6.097 1.61-8.642 3.68-1.36 1.105-2.73 1.482-4.435.114-2.634-2.11-5.912-2.955-9.152-3.75V89.422c-2.976 1.008-4.86 4.255-8.447 2.922 1.99-1.556 3.96-2.985 5.794-4.57.97-.84 2.192-1.85 1.56-3.36-.576-1.38-2.03-.81-3.11-.852-4.62-.18-9.22.02-13.752 1.067 1.676-4.74 6.695-3.76 9.943-5.812 1.384.01 2.767.02 4.15.032.948.984 1.895 1.072 2.84-.005.704 0 1.408.003 2.112.005l2.166 5.063c-.075 3.64-.162 7.277-.223 10.917-.03 1.79.368 3.09 2.525 3.575 12.273 2.752 16.255-1.035 13.778-13.263-.1-.486-.184-.977-.274-1.465.965-1.597 1.932-3.193 2.898-4.79l1.196-.003c.97 1.027 1.914.982 2.836-.063 1.378.005 2.757.01 4.135.013 3.152 2.148 8.403.637 9.895 5.676z"/><path fill="#DA012A" d="M182.326 122.638c-4.93 3.212-10.03 1.224-15.09.5l3.88-3.933c2.767-.1 5.534-.196 8.3-.295 1.26 1.018 2.537 2.02 2.91 3.728z"/><path fill="#070606" d="M179.417 118.91c-2.767.1-5.534.196-8.3.295l1.952-3.466 4.953-.16 1.394 3.33z"/><path fill="#FCFCFC" d="M178.023 115.58l-4.954.16 2.268-6.65 2.685 6.49z"/><path fill="#C8822B" d="M186.552 154.696c-7.378 7.113-18.133 6.373-23.343-1.316 7.663 2.18 15.03 1.102 23.342 1.316zM168.07 128.72l14.036-.026-.018-.02c-3.417 4.518-9.387 4.513-13.956-.012l-.06.06zM168.133 128.662l-.392-.22.33.278.063-.058zM182.106 128.693l.417-.4c-.024.088-.022.214-.08.257-.098.07-.234.087-.355.125l.018.018zM204.07 84.51c-1.492-5.04-6.743-3.528-9.894-5.678l24.952.02-.036 4.853c-5.017.084-10.073-.57-15.022.804zM186.01 78.887l-2.9 4.79c-5.27.08-10.537.157-15.806.235l-2.166-5.063c6.957.01 13.914.024 20.872.037zM163.026 78.844c-.945 1.077-1.893.99-2.842.005l2.842-.006zM190.042 78.82c-.922 1.046-1.866 1.09-2.836.063.945-.02 1.89-.04 2.836-.063z"/><path fill="#C20125" d="M168.726 48.214c.31-.288.62-.577.936-.86 4.2-2.54 8.237-1.97 12.168.635.32.333.64.667.958 1.002.232.398.467.796.698 1.194.873 3 2.29 7.163-.54 8.58-3.97 1.99-7.923 6.36-13.336 3.376l-1.92-2.016c-1.423-2.576-1.826-5.31-1.258-8.19l.967-2.012c.44-.57.883-1.14 1.326-1.71zm9.333 6.233c-.233-1.276-1.16-2.395-2.86-2.34-1.522.047-2.314 1.16-2.278 2.68.04 1.745.947 2.846 2.756 2.72 1.51-.104 2.285-1.13 2.38-3.06z"/><path fill="#A5601A" d="M226.077 86.6c-3.414 4.14-3.408 8.545-1.012 13.134-4.438-.09-4.93-3.28-4.964-6.585-.038-3.92 1.99-6.19 5.977-6.55zM225.067 99.717c.656.284 1.313.568 1.97.85-.806.062-1.596.086-1.97-.85z"/><path fill="#F2CD8B" d="M167.304 83.912l15.807-.235c.092.488.177.98.275 1.465 2.477 12.228-1.505 16.015-13.778 13.263-2.157-.484-2.556-1.786-2.525-3.575.06-3.64.147-7.28.222-10.918z"/><path fill="#0B0909" d="M178.06 54.447c-.097 1.93-.87 2.956-2.383 3.06-1.81.126-2.715-.975-2.756-2.72-.035-1.52.757-2.633 2.278-2.68 1.7-.054 2.628 1.064 2.86 2.34z"/></g></svg>